<?xml version="1.0" encoding="utf-8"?>
<!-- Generator: Adobe Illustrator 24.3.0, SVG Export Plug-In . SVG Version: 6.00 Build 0)  -->
<svg version="1.1" id="Слой_1" xmlns="http://www.w3.org/2000/svg" xmlns:xlink="http://www.w3.org/1999/xlink" x="0px" y="0px"
	 viewBox="0 0 999 443" style="enable-background:new 0 0 999 443;" xml:space="preserve">
<style type="text/css">
	.st0{fill-rule:evenodd;clip-rule:evenodd;fill:#05A1DC;}
	.st1{fill:#FFFFFF;}
</style>
<path class="st0" d="M627.1,442.2c15.1,0,29-7.6,39.9-18.1c23.2-22.2,53-36.4,83.5-46.6c3.8-1.3,7.6-2.5,11.5-3.7
	c14.8-4.7,29.6-9.5,43-17.2c16.8-9.8,31.5-25.5,34.6-44.7c2.5-16.3-3.5-32.5-9.3-48c-0.3-0.9-0.7-1.9-1-2.8c-13-35-22-76.1-2.5-108
	c14.2-23.3,40.6-36,66.3-45c5-1.7,10-3.4,15-5c21-6.9,42.2-13.9,59.8-26.9c20.3-15,34.8-40.4,29.4-66c-1.2-5.5-6.5-9.1-12.2-9.1H100
	C44.8,0.9,0,45.7,0,100.9v241.3c0,55.2,44.8,100,100,100H627.1z"/>
<path class="st1" d="M151.2,101.3V76h8.7c2.3,0,4.2,0.7,5.6,2.1c1.5,1.4,2.2,3.2,2.2,5.5c0,2.3-0.7,4.2-2.2,5.6
	c-1.5,1.4-3.3,2.1-5.6,2.1h-6.3v9.9H151.2z M153.6,89.2h5.9c1.7,0,3.1-0.5,4.1-1.5s1.5-2.3,1.5-4c0-1.7-0.5-3-1.5-4
	c-1-1-2.3-1.4-4-1.4h-6V89.2z M169.8,101.3l9.3-25.3h2.7l9.3,25.3h-2.6l-2.9-8.1h-10.2l-2.9,8.1H169.8z M176,91.1h8.7l-3.3-9.2
	l-1-3.3h-0.1c-0.4,1.4-0.7,2.5-1,3.3L176,91.1z M194.5,88.5c0-3.7,1.2-6.8,3.6-9.2c2.4-2.5,5.4-3.7,9.1-3.7c3.8,0,6.9,1.1,9.1,3.3
	l-1.3,1.8c-1-0.9-2.2-1.5-3.6-2c-1.4-0.5-2.8-0.8-4.2-0.8c-3,0-5.5,1-7.4,3c-1.9,2-2.8,4.5-2.8,7.5c0,3.1,0.9,5.7,2.8,7.8
	s4.4,3.2,7.5,3.2c3.2,0,5.9-1.1,8.2-3.3l1.4,1.8c-2.7,2.6-5.9,3.9-9.7,3.9c-3.8,0-6.9-1.3-9.3-3.8C195.7,95.4,194.5,92.3,194.5,88.5
	z M221.2,88.5c0-3.7,1.2-6.8,3.6-9.2c2.4-2.5,5.4-3.7,9.1-3.7c3.8,0,6.9,1.1,9.1,3.3l-1.3,1.8c-1-0.9-2.2-1.5-3.6-2
	c-1.4-0.5-2.8-0.8-4.2-0.8c-3,0-5.5,1-7.4,3c-1.9,2-2.8,4.5-2.8,7.5c0,3.1,0.9,5.7,2.8,7.8s4.4,3.2,7.5,3.2c3.2,0,5.9-1.1,8.2-3.3
	l1.4,1.8c-2.7,2.6-5.9,3.9-9.7,3.9c-3.8,0-6.9-1.3-9.3-3.8C222.3,95.4,221.2,92.3,221.2,88.5z M256,91.4c-5,0-7.5-2.4-7.5-7.2V76
	h2.5v7.7c0,1.8,0.4,3.1,1.3,4c0.9,0.9,2.2,1.3,4.1,1.3c2.2,0,4.3-0.6,6.2-1.9V76h2.5v25.3h-2.5V90.7l0.1-1.2h-0.1
	C260.3,90.7,258.1,91.4,256,91.4z M273.8,101.3V76h2.5v18.2l-0.2,3.4h0.1c0.9-1.5,1.6-2.7,2.2-3.5L291.1,76h2.4v25.3h-2.5V83.1
	l0.2-3.4h-0.1c-0.8,1.4-1.5,2.6-2.1,3.4l-12.9,18.2H273.8z M308.3,101.3V78.3h-9.1V76h20.7v2.2h-9.1v23.1H308.3z M320.5,101.3
	l9.3-25.3h2.7l9.3,25.3h-2.6l-2.9-8.1H326l-2.9,8.1H320.5z M326.8,91.1h8.7l-3.3-9.2l-1-3.3h-0.1c-0.4,1.4-0.7,2.5-1,3.3L326.8,91.1
	z M351.5,101.3V78.3h-9.1V76h20.7v2.2H354v23.1H351.5z M368.8,101.3V76h2.5v10.2h5.8c2.2,0,4,0.7,5.4,2c1.4,1.3,2.1,3.2,2.1,5.6
	c0,2.3-0.7,4.1-2.1,5.4c-1.4,1.4-3.1,2.1-5.3,2.1H368.8z M371.3,99.1h5.6c1.6,0,2.8-0.5,3.7-1.4c0.9-0.9,1.4-2.2,1.4-3.9
	s-0.5-3-1.4-3.9c-0.9-1-2.2-1.4-3.7-1.4h-5.6V99.1z M399.7,88.5c0-3.7,1.2-6.8,3.6-9.2c2.4-2.5,5.4-3.7,9.1-3.7
	c3.8,0,6.9,1.1,9.1,3.3l-1.3,1.8c-1-0.9-2.2-1.5-3.6-2c-1.4-0.5-2.8-0.8-4.2-0.8c-3,0-5.5,1-7.4,3c-1.9,2-2.8,4.5-2.8,7.5
	c0,3.1,0.9,5.7,2.8,7.8s4.4,3.2,7.5,3.2c3.2,0,5.9-1.1,8.2-3.3l1.4,1.8c-2.7,2.6-5.9,3.9-9.7,3.9s-6.9-1.3-9.3-3.8
	C400.9,95.4,399.7,92.3,399.7,88.5z M434.7,101.3V78.3h-9.1V76h20.7v2.2h-9.1v23.1H434.7z M449,88.5c0-3.6,1.2-6.6,3.7-9.1
	c2.5-2.5,5.5-3.7,9.1-3.7s6.6,1.2,9.1,3.7c2.5,2.5,3.7,5.5,3.7,9.1c0,3.7-1.2,6.9-3.7,9.4c-2.5,2.6-5.5,3.9-9.1,3.9
	s-6.6-1.3-9.1-3.9C450.2,95.4,449,92.2,449,88.5z M451.6,88.5c0,3.1,1,5.7,3,7.8c2,2.1,4.5,3.2,7.3,3.2c2.9,0,5.3-1.1,7.3-3.2
	s3-4.7,3-7.8c0-3-1-5.5-3-7.5c-2-2-4.4-3.1-7.3-3.1c-2.9,0-5.3,1-7.3,3.1C452.6,83,451.6,85.5,451.6,88.5z M481.8,101.3V76h2.5v18.2
	l-0.2,3.4h0.1c0.9-1.5,1.6-2.7,2.2-3.5L499.2,76h2.4v25.3h-2.5V83.1l0.2-3.4h-0.1c-0.8,1.4-1.5,2.6-2.1,3.4l-12.9,18.2H481.8z
	 M509.3,101.3l2-25.3h2.6l6.7,14.9l1.2,3.1h0.1c0.4-1.2,0.8-2.2,1.2-3.1l6.7-14.9h2.6l2,25.3h-2.5l-1.4-17.7l-0.1-3.5h-0.1
	c-0.5,1.5-0.9,2.7-1.3,3.5l-6,13h-2.3l-5.9-13l-1.4-3.6h-0.1c0,1.5,0,2.7-0.1,3.6l-1.4,17.7H509.3z M540.4,88.5
	c0-3.6,1.2-6.6,3.7-9.1c2.5-2.5,5.5-3.7,9.1-3.7c3.6,0,6.6,1.2,9.1,3.7c2.5,2.5,3.7,5.5,3.7,9.1c0,3.7-1.2,6.9-3.7,9.4
	c-2.5,2.6-5.5,3.9-9.1,3.9c-3.6,0-6.6-1.3-9.1-3.9C541.6,95.4,540.4,92.2,540.4,88.5z M542.9,88.5c0,3.1,1,5.7,3,7.8
	c2,2.1,4.5,3.2,7.3,3.2c2.9,0,5.3-1.1,7.3-3.2s3-4.7,3-7.8c0-3-1-5.5-3-7.5c-2-2-4.4-3.1-7.3-3.1c-2.9,0-5.3,1-7.3,3.1
	C543.9,83,542.9,85.5,542.9,88.5z M571.5,88.5c0-3.7,1.2-6.8,3.6-9.2c2.4-2.5,5.4-3.7,9.1-3.7c3.8,0,6.9,1.1,9.1,3.3l-1.3,1.8
	c-1-0.9-2.2-1.5-3.6-2c-1.4-0.5-2.8-0.8-4.2-0.8c-3,0-5.5,1-7.4,3c-1.9,2-2.8,4.5-2.8,7.5c0,3.1,0.9,5.7,2.8,7.8s4.4,3.2,7.5,3.2
	c3.2,0,5.9-1.1,8.2-3.3l1.4,1.8c-2.7,2.6-5.9,3.9-9.7,3.9s-6.9-1.3-9.3-3.8C572.7,95.4,571.5,92.3,571.5,88.5z M606.5,101.3V78.3
	h-9.1V76h20.7v2.2H609v23.1H606.5z M623.8,101.3V76h2.5v10.2h5.8c2.2,0,4,0.7,5.4,2c1.4,1.3,2.1,3.2,2.1,5.6c0,2.3-0.7,4.1-2.1,5.4
	c-1.4,1.4-3.1,2.1-5.3,2.1H623.8z M626.3,99.1h5.6c1.6,0,2.8-0.5,3.7-1.4c0.9-0.9,1.4-2.2,1.4-3.9s-0.5-3-1.4-3.9
	c-0.9-1-2.2-1.4-3.7-1.4h-5.6V99.1z M149.9,144l2.1-3.5c1.1,0.8,2,1.3,2.9,1.3c1.1,0,2-0.7,2.6-2.2l-10-19.8h5.1l5.4,11.4l1.4,3.4
	h0.1c0.3-1.1,0.7-2.2,1-3.3l4.1-11.4h4.9l-7.9,20.2c-0.3,0.8-0.6,1.5-1,2.1c-0.3,0.6-0.8,1.2-1.3,1.8c-0.5,0.6-1.2,1.1-1.9,1.4
	s-1.5,0.5-2.4,0.5C153.3,145.8,151.6,145.2,149.9,144z M174.1,145.3v-25.6h15.7v4h-11.1v5.9h5.1c2.4,0,4.3,0.7,5.8,2.2
	c1.5,1.4,2.2,3.3,2.2,5.7c0,2.3-0.7,4.2-2.2,5.6c-1.5,1.4-3.4,2.2-5.7,2.2H174.1z M178.8,141.3h4.4c1.3,0,2.3-0.3,3-1
	c0.7-0.7,1-1.6,1-2.8c0-1.2-0.4-2.1-1.1-2.8c-0.7-0.7-1.7-1.1-3-1.1h-4.3V141.3z M196.2,132.4c0-3.7,1.3-6.8,3.8-9.3
	c2.5-2.5,5.7-3.8,9.4-3.8c3.7,0,6.9,1.3,9.4,3.8c2.5,2.5,3.8,5.6,3.8,9.3c0,3.8-1.3,6.9-3.8,9.5c-2.5,2.6-5.7,3.9-9.4,3.9
	c-3.7,0-6.9-1.3-9.4-3.9C197.5,139.3,196.2,136.1,196.2,132.4z M201,132.4c0,2.6,0.8,4.8,2.4,6.5c1.6,1.8,3.6,2.6,6,2.6
	c2.4,0,4.3-0.9,6-2.6c1.6-1.8,2.4-3.9,2.4-6.5c0-2.5-0.8-4.5-2.4-6.2c-1.6-1.7-3.6-2.6-6-2.6c-2.4,0-4.3,0.9-6,2.6
	C201.8,127.8,201,129.9,201,132.4z M228.8,145.3v-25.6h9.9c2.4,0,4.4,0.8,5.9,2.3c1.5,1.5,2.3,3.5,2.3,6s-0.8,4.5-2.3,6.1
	c-1.5,1.6-3.5,2.3-5.9,2.3h-5.2v8.8H228.8z M233.4,132.5h4.4c1.3,0,2.4-0.4,3.1-1.2c0.8-0.8,1.2-1.9,1.2-3.2c0-1.3-0.4-2.4-1.2-3.1
	c-0.7-0.8-1.8-1.2-3.1-1.2h-4.4V132.5z M252.3,145.3v-25.6h4.6v10.4h3.3l6-10.4h5l-7.2,12.2v0.1l7.7,13.3h-5.3l-6.2-11.2h-3.3v11.2
	H252.3z M276.7,145.3v-25.6h4.6v14.8l-0.3,4h0.1c0.8-1.7,1.5-3,2.2-4l9.6-14.7h4.6v25.6h-4.6v-14.7l0.3-4h-0.1c-0.8,1.6-1.5,3-2.1,4
	l-9.7,14.7H276.7z M315.6,145.3v-25.6h4.6v10.4h3.3l6-10.4h5l-7.2,12.2v0.1l7.7,13.3h-5.3l-6.2-11.2h-3.3v11.2H315.6z M340,145.3
	v-25.6h9.1c2.4,0,4.3,0.6,5.7,1.8c1.5,1.2,2.2,2.8,2.2,4.8c0,1.2-0.3,2.3-0.8,3.2c-0.6,1-1.3,1.7-2.3,2.2v0.1
	c1.3,0.4,2.4,1.1,3.1,2.3c0.7,1.1,1.1,2.4,1.1,3.7c0,2.4-0.8,4.3-2.5,5.5c-1.7,1.2-3.8,1.9-6.3,1.9H340z M344.7,130.2h4.5
	c1,0,1.8-0.3,2.3-0.9c0.6-0.6,0.9-1.4,0.9-2.4c0-0.9-0.3-1.7-0.9-2.3c-0.6-0.6-1.3-0.9-2.4-0.9h-4.4V130.2z M344.7,141.3h5
	c1.2,0,2.1-0.3,2.7-1c0.7-0.7,1-1.6,1-2.7c0-1.1-0.3-2-1-2.6c-0.6-0.7-1.5-1-2.7-1h-5V141.3z M361.2,145.3l9-25.6h4.9l9,25.6h-4.8
	l-2.2-6.6h-9l-2.2,6.6H361.2z M369.2,135h6.7l-2.3-6.8l-1-4h-0.1c-0.4,1.7-0.7,3-1,4L369.2,135z M388.8,145.3v-25.6h9.9
	c2.4,0,4.4,0.8,5.9,2.3c1.5,1.5,2.3,3.5,2.3,6s-0.8,4.5-2.3,6.1c-1.5,1.6-3.5,2.3-5.9,2.3h-5.2v8.8H388.8z M393.5,132.5h4.4
	c1.3,0,2.4-0.4,3.1-1.2c0.8-0.8,1.2-1.9,1.2-3.2c0-1.3-0.4-2.4-1.2-3.1c-0.7-0.8-1.8-1.2-3.1-1.2h-4.4V132.5z M418.1,145.3v-21.6
	h-8.4v-4h21.4v4h-8.4v21.6H418.1z M436.2,145.3v-25.6h4.6v14.8l-0.3,4h0.1c0.8-1.7,1.5-3,2.2-4l9.6-14.7h4.6v25.6h-4.6v-14.7l0.3-4
	h-0.1c-0.8,1.6-1.5,3-2.1,4l-9.7,14.7H436.2z M464.7,145.3v-25.6h9.9c2.4,0,4.4,0.8,5.9,2.3s2.3,3.5,2.3,6s-0.8,4.5-2.3,6.1
	c-1.5,1.6-3.5,2.3-5.9,2.3h-5.2v8.8H464.7z M469.4,132.5h4.4c1.3,0,2.4-0.4,3.1-1.2c0.8-0.8,1.2-1.9,1.2-3.2c0-1.3-0.4-2.4-1.2-3.1
	c-0.7-0.8-1.8-1.2-3.1-1.2h-4.4V132.5z M508.9,145.3v-25.6h4.6v25.6H508.9z M488.2,145.3v-25.6h4.6v9h4.8c2.4,0,4.3,0.8,5.8,2.3
	c1.5,1.5,2.2,3.5,2.2,6c0,2.4-0.7,4.4-2.2,6c-1.5,1.5-3.4,2.3-5.7,2.3H488.2z M492.9,141.3h4c1.3,0,2.3-0.4,3-1.1
	c0.7-0.8,1-1.8,1-3.1c0-1.3-0.4-2.4-1.1-3.2c-0.7-0.8-1.7-1.2-3-1.2h-4V141.3z"/>
<path class="st1" d="M108.8,253.4v0.2c-5.8,0-11.1,0.5-15.1,1.6h-0.1c-2.5,0.6-4.3,2.6-5,5v0.1c-1.1,4.1-1.6,9.4-1.6,15.1h-0.2
	c0-5.8-0.5-11.1-1.6-15.1v-0.1c-0.6-2.5-2.6-4.3-5-5h-0.1c-4-1.1-9.3-1.6-15-1.6v-0.2c5.8,0,11.1-0.5,15.1-1.6h0.1
	c2.5-0.6,4.3-2.6,5-5v-0.1c1.1-4.1,1.6-9.4,1.6-15.1H87c0,5.8,0.5,11.1,1.6,15.1v0.1c0.6,2.5,2.6,4.3,5,5h0.1
	C97.7,252.8,103,253.3,108.8,253.4L108.8,253.4z"/>
<path class="st1" d="M75.6,231.5L75.6,231.5c-4.3,0.1-8.3,0.5-11.3,1.2c-1.9,0.4-3.3,1.9-3.8,3.7v0.1c-0.8,3-1.2,7.1-1.2,11.3h-0.2
	c0-4.3-0.4-8.3-1.2-11.3v-0.1c-0.4-1.9-1.9-3.3-3.7-3.7h-0.1c-3-0.8-7.1-1.2-11.3-1.2v-0.2c4.3,0,8.3-0.4,11.3-1.2h0.1
	c1.9-0.4,3.3-1.9,3.7-3.8c0.8-3,1.2-7.1,1.2-11.3h0.2c0,4.3,0.4,8.3,1.2,11.3v0.1c0.4,1.9,1.9,3.3,3.7,3.7h0.1
	C67.3,231,71.3,231.5,75.6,231.5L75.6,231.5z"/>
<path class="st1" d="M59.3,266.8c-2.1,0.1-4.2,0.3-5.7,0.6c-0.9,0.3-1.6,1-1.9,1.9c-0.4,1.5-0.6,3.5-0.6,5.7c0-2.1-0.2-4.2-0.6-5.7
	c-0.3-0.9-1-1.6-1.9-1.9c-1.5-0.4-3.5-0.6-5.7-0.6c2.1,0,4.2-0.2,5.7-0.6c0.9-0.3,1.6-1,1.9-1.9c0.4-1.5,0.6-3.5,0.6-5.7
	c0,2.1,0.2,4.2,0.6,5.7c0.3,0.9,1,1.6,1.9,1.9C55.2,266.5,57.2,266.7,59.3,266.8z"/>
<path class="st1" d="M752.1,72.9v0.2c-5.8,0-11.1,0.5-15.1,1.6h-0.1c-2.5,0.6-4.3,2.6-5,5v0.1c-1.1,4.1-1.6,9.4-1.6,15.1H730
	c0-5.8-0.5-11.1-1.6-15.1v-0.1c-0.6-2.5-2.6-4.3-5-5h-0.1c-4-1.1-9.3-1.6-15-1.6v-0.2c5.8,0,11.1-0.5,15.1-1.6h0.1
	c2.5-0.6,4.3-2.6,5-5v-0.1c1.1-4.1,1.6-9.4,1.6-15.1h0.2c0,5.8,0.5,11.1,1.6,15.1v0.1c0.6,2.5,2.6,4.3,5,5h0.1
	C740.9,72.3,746.2,72.8,752.1,72.9L752.1,72.9z"/>
<path class="st1" d="M718.9,51L718.9,51c-4.3,0.1-8.3,0.5-11.3,1.2c-1.9,0.4-3.3,1.9-3.8,3.7V56c-0.8,3-1.2,7.1-1.2,11.3h-0.2
	c0-4.3-0.4-8.3-1.2-11.3v-0.1c-0.4-1.9-1.9-3.3-3.7-3.7h-0.1c-3-0.8-7.1-1.2-11.3-1.2v-0.2c4.3,0,8.3-0.4,11.3-1.2h0.1
	c1.9-0.4,3.3-1.9,3.7-3.8c0.8-3,1.2-7.1,1.2-11.3h0.2c0,4.3,0.4,8.3,1.2,11.3V46c0.4,1.9,1.9,3.3,3.7,3.7h0.1
	C710.6,50.5,714.5,51,718.9,51L718.9,51z"/>
<path class="st1" d="M702.6,86.3c-2.1,0.1-4.2,0.3-5.7,0.6c-0.9,0.3-1.6,1-1.9,1.9c-0.4,1.5-0.6,3.5-0.6,5.7c0-2.1-0.2-4.2-0.6-5.7
	c-0.3-0.9-1-1.6-1.9-1.9c-1.5-0.4-3.5-0.6-5.7-0.6c2.1,0,4.2-0.2,5.7-0.6c0.9-0.3,1.6-1,1.9-1.9c0.4-1.5,0.6-3.5,0.6-5.7
	c0,2.1,0.2,4.2,0.6,5.7c0.3,0.9,1,1.6,1.9,1.9C698.4,86,700.5,86.2,702.6,86.3z"/>
</svg>
