<svg width="34" height="34" viewBox="0 0 34 34" fill="none" xmlns="http://www.w3.org/2000/svg">
<path d="M33.3896 16.8965V16.9848C29.0529 16.9848 25.0704 17.4275 22.0615 18.1355C20.2026 18.5782 18.7871 20.0826 18.2562 21.8526V21.9409C17.4599 24.9497 17.1055 29.0211 17.1055 33.269H16.929C16.929 28.9323 16.4863 24.9497 15.7783 21.9409V21.8526C15.3356 19.9937 13.8312 18.5782 12.0612 18.1355H11.9729C8.96404 17.3392 4.89267 16.9848 0.644775 16.9848V16.8083C4.98149 16.8083 8.96404 16.3656 11.9729 15.6576H12.0612C13.92 15.2149 15.3356 13.7105 15.7783 11.8523C16.5746 8.84344 16.929 4.77207 16.929 0.52417H17.1055C17.1055 4.86089 17.5482 8.84344 18.2562 11.8523V11.9406C18.6989 13.7994 20.2033 15.215 21.9733 15.6577H22.0616C25.0704 16.4546 29.0528 16.8966 33.3897 16.8966L33.3896 16.8965Z" fill="#05A1DC"/>
</svg>
