<svg width="25" height="25" viewBox="0 0 25 25" fill="none" xmlns="http://www.w3.org/2000/svg">
<path d="M24.1362 12.4755C24.1362 12.4755 24.1361 12.4755 24.1361 12.4755V12.5202C24.1361 12.5306 24.1277 12.539 24.1174 12.539C21.0039 12.5402 18.1452 12.8585 15.9843 13.367C14.658 13.6829 13.6453 14.7499 13.2559 16.0096C13.2493 16.0309 13.2461 16.0532 13.2461 16.0755C13.2461 16.0953 13.2435 16.1148 13.2385 16.134C12.6747 18.2813 12.4215 21.1732 12.418 24.1936C12.418 24.2287 12.3896 24.2572 12.3545 24.2572C12.3194 24.2572 12.291 24.2286 12.2909 24.1935C12.2866 21.1121 11.972 18.2827 11.4701 16.1359C11.4653 16.1154 11.4629 16.0948 11.4629 16.0738C11.4629 16.0526 11.4604 16.0313 11.4553 16.0107C11.1301 14.6989 10.0689 13.699 8.81803 13.3746C8.79817 13.3695 8.77771 13.367 8.75719 13.367C8.73553 13.367 8.7142 13.3643 8.69324 13.3588C6.54621 12.7955 3.65547 12.5425 0.636349 12.539C0.601264 12.539 0.572754 12.5105 0.572754 12.4754C0.572754 12.4404 0.601326 12.4119 0.636411 12.4119C3.71782 12.4076 6.54723 12.0929 8.69404 11.591C8.71447 11.5862 8.73516 11.5839 8.75614 11.5839C8.77736 11.5839 8.7986 11.5814 8.8192 11.5763C10.1415 11.2485 11.1468 10.1724 11.4629 8.84559C12.032 6.6954 12.2874 3.79121 12.2909 0.757381C12.291 0.722297 12.3194 0.693787 12.3545 0.693787C12.3896 0.693787 12.418 0.722358 12.418 0.757442C12.4223 3.83885 12.737 6.66826 13.2389 8.81507C13.2437 8.83551 13.2461 8.85619 13.2461 8.87717C13.2461 8.89839 13.2485 8.91963 13.2536 8.94023C13.5788 10.2521 14.6401 11.2519 15.8909 11.5763C15.9108 11.5815 15.9312 11.5839 15.9517 11.5839C15.9734 11.5839 15.9948 11.5867 16.0157 11.5922C18.1772 12.1605 21.0304 12.4755 24.1362 12.4755C24.1362 12.4755 24.1362 12.4755 24.1362 12.4755Z" fill="#05A1DC"/>
</svg>
