<svg width="45" height="45" viewBox="0 0 45 45" fill="none" xmlns="http://www.w3.org/2000/svg">
<path d="M44.5768 22.8441V23.0213C38.8245 23.0213 33.5141 23.5522 29.4428 24.614H29.3545C26.8765 25.2338 25.0178 27.1802 24.3096 29.5699V29.6582C23.2478 33.7296 22.7169 39.0392 22.7169 44.7922H22.5403C22.5403 39.04 22.0094 33.7296 20.9476 29.6582V29.5699C20.3278 27.0919 18.3814 25.2332 15.9028 24.525H15.8145C11.8315 23.4632 6.52106 22.9323 0.768799 22.9323V22.7558C6.52106 22.7558 11.8314 22.2248 15.9028 21.1631H15.9911C18.4691 20.5432 20.3278 18.5968 20.947 16.1182V16.0299C22.0088 11.9585 22.5397 6.64893 22.5397 0.895874H22.7163C22.7163 6.64814 23.2472 11.9585 24.309 16.0299V16.1182C24.9288 18.5962 26.8752 20.4549 29.2649 21.1631H29.3532C33.4245 22.2249 38.7341 22.7558 44.4872 22.7558L44.5768 22.8441Z" fill="#05A1DC"/>
</svg>
