<svg width="77" height="61" viewBox="0 0 77 61" fill="none" xmlns="http://www.w3.org/2000/svg">
<circle cx="29.101" cy="34.9301" r="25.8846" fill="#05A1DC" fill-opacity="0.1"/>
<path d="M22.0893 16.6315V16.6888C20.2313 16.6888 18.5161 16.8602 17.201 17.2032H17.1725C16.3721 17.4034 15.7717 18.0321 15.543 18.804V18.8325C15.2 20.1476 15.0285 21.8626 15.0285 23.7208H14.9715C14.9715 21.8628 14.8 20.1476 14.457 18.8325V18.804C14.2568 18.0036 13.6281 17.4032 12.8275 17.1745H12.799C11.5125 16.8315 9.79721 16.66 7.93921 16.66V16.603C9.79721 16.603 11.5125 16.4315 12.8275 16.0885H12.8561C13.6565 15.8883 14.2568 15.2596 14.4568 14.459V14.4305C14.7998 13.1154 14.9713 11.4004 14.9713 9.54218H15.0283C15.0283 11.4002 15.1998 13.1154 15.5428 14.4305V14.459C15.743 15.2594 16.3717 15.8598 17.1435 16.0885H17.172C18.4871 16.4315 20.2021 16.603 22.0604 16.603L22.0893 16.6315Z" fill="#05A1DC"/>
<path d="M11.3697 9.54248V9.57099C9.96888 9.57099 8.68251 9.71396 7.71063 9.94267C7.11022 10.0856 6.65299 10.5716 6.48152 11.1433V11.1718C6.2243 12.1437 6.10984 13.4588 6.10984 14.8308H6.05281C6.05281 13.4301 5.90984 12.1437 5.68113 11.1718V11.1433C5.53816 10.5429 5.05224 10.0857 4.48051 9.94267H4.452C3.48012 9.68544 2.16505 9.57099 0.792969 9.57099V9.51396C2.19374 9.51396 3.48012 9.37099 4.452 9.14228H4.48051C5.08092 8.99931 5.53815 8.51339 5.68113 7.91318C5.93836 6.9413 6.05281 5.62624 6.05281 4.25415H6.10984C6.10984 5.65492 6.25281 6.9413 6.48152 7.91318V7.94169C6.6245 8.5421 7.11042 8.99933 7.68214 9.14231H7.71066C8.68254 9.39974 9.96886 9.54251 11.3697 9.54251L11.3697 9.54248Z" fill="#05A1DC"/>
<path d="M6.10864 20.9485C5.42252 20.9771 4.76509 21.0343 4.27913 21.1487C3.99318 21.2345 3.76468 21.4632 3.67872 21.7492C3.56446 22.2351 3.47851 22.8925 3.47851 23.5787C3.47851 22.8926 3.42129 22.2351 3.27832 21.7492C3.19257 21.4632 2.96386 21.2347 2.6779 21.1487C2.19196 21.0345 1.53456 20.9485 0.848389 20.9485C1.53451 20.9485 2.19194 20.8913 2.6779 20.7483C2.96385 20.6626 3.19235 20.4339 3.27832 20.1479C3.39257 19.662 3.47851 19.0046 3.47851 18.3184C3.47851 19.0045 3.53574 19.662 3.67872 20.1479C3.76446 20.4339 3.99317 20.6624 4.27913 20.7483C4.76507 20.8628 5.42247 20.92 6.10864 20.9485Z" fill="#05A1DC"/>
<path d="M38.6379 51.3085H34.4019L46.5126 4.95384C46.751 3.9992 46.5721 2.98511 45.9158 2.14989C45.2596 1.31469 44.3648 0.837402 43.3507 0.837402C41.9188 0.837402 40.7257 1.79203 40.3678 3.16408L27.7202 51.3085H22.4106C20.0245 51.3085 18.0557 53.2772 18.0557 55.6634V57.8707H42.9332V55.6035C42.9332 53.2769 40.9645 51.3086 38.6378 51.3086L38.6379 51.3085ZM42.635 3.82033C42.6945 3.52195 42.9929 3.28349 43.3508 3.28349C43.6492 3.28349 43.8876 3.40293 44.0666 3.64138C44.2455 3.87983 44.305 4.1187 44.2455 4.35716L31.9559 51.0101H30.226L42.635 3.82033ZM22.4108 53.6948H33.8652C34.8794 53.6948 35.7145 54.4705 35.7745 55.4847H20.4423C20.5617 54.4705 21.3969 53.6948 22.411 53.6948H22.4108ZM38.1606 55.4847C38.1606 54.8284 37.9817 54.2316 37.6833 53.6948H38.578C39.5922 53.6948 40.4273 54.4705 40.4873 55.4847H38.1606Z" fill="#05A1DC"/>
<path d="M70.9132 23.7462H59.6378V25.6555H56.4759C56.0581 24.2835 54.9844 23.2694 53.6719 22.8516C53.7314 18.4367 54.865 14.7975 56.8338 12.8292C57.9674 11.6956 59.3989 11.0993 61.0698 11.0993C65.1863 11.0993 68.5271 16.0509 68.5271 22.1361H70.9132C70.9132 14.7383 66.4388 8.71295 61.0698 8.71295C58.7431 8.71295 56.7148 9.54815 55.1039 11.1591C51.942 14.38 51.3454 19.6896 51.2858 22.851C49.9138 23.2689 48.8997 24.283 48.4819 25.655H42.4561L42.0383 29.831L45.4391 57.8704H71.3905L72.4046 49.5185H73.6577C75.4475 49.5185 76.879 48.0866 76.879 46.2971V29.7717C76.9385 26.4904 74.2539 23.746 70.9132 23.746L70.9132 23.7462ZM69.3023 55.4845H47.5867L47.3482 53.5158H58.564V51.1297H47.0499L45.6779 39.7946H57.3709V37.4085L45.3796 37.408L45.0812 35.0219H57.3708V32.6358L44.7829 32.6354L44.425 29.8314L44.604 28.0416H50.6892V26.8485C50.6892 25.8344 51.4649 25.0586 52.4791 25.0586C53.4933 25.0586 54.269 25.8343 54.269 26.8485V28.0416H59.638V46.297C59.638 48.0869 61.0699 49.5184 62.8594 49.5184H70.0183L69.3023 55.4845ZM74.5524 46.2969C74.5524 46.7742 74.1945 47.1321 73.7172 47.1321H66.3793V35.8567H63.9932L63.9928 47.1321H62.9191C62.4418 47.1321 62.0839 46.7742 62.0839 46.2969V26.1324H70.9731C73.0014 26.1324 74.6123 27.7432 74.6123 29.7715L74.6119 46.2969H74.5524Z" fill="#05A1DC"/>
</svg>
