<svg width="84" height="66" viewBox="0 0 84 66" fill="none" xmlns="http://www.w3.org/2000/svg">
<circle cx="29.101" cy="39.9301" r="25.8846" fill="#05A1DC" fill-opacity="0.1"/>
<path d="M22.0896 21.6315V21.6888C20.2316 21.6888 18.5163 21.8602 17.2012 22.2032H17.1727C16.3723 22.4034 15.772 23.0321 15.5432 23.804V23.8325C15.2002 25.1476 15.0288 26.8626 15.0288 28.7208H14.9717C14.9717 26.8628 14.8002 25.1476 14.4573 23.8325V23.804C14.2571 23.0036 13.6284 22.4032 12.8278 22.1745H12.7993C11.5127 21.8315 9.79745 21.66 7.93945 21.66V21.603C9.79745 21.603 11.5127 21.4315 12.8278 21.0885H12.8563C13.6567 20.8883 14.2571 20.2596 14.4571 19.459V19.4305C14.8001 18.1154 14.9715 16.4004 14.9715 14.5422H15.0286C15.0286 16.4002 15.2 18.1154 15.543 19.4305V19.459C15.7432 20.2594 16.3719 20.8598 17.1438 21.0885H17.1723C18.4874 21.4315 20.2024 21.603 22.0606 21.603L22.0896 21.6315Z" fill="#05A1DC"/>
<path d="M11.3697 14.5425V14.571C9.96888 14.571 8.68251 14.714 7.71063 14.9427C7.11022 15.0856 6.65299 15.5716 6.48152 16.1433V16.1718C6.2243 17.1437 6.10984 18.4588 6.10984 19.8308H6.05281C6.05281 18.4301 5.90984 17.1437 5.68113 16.1718V16.1433C5.53816 15.5429 5.05224 15.0857 4.48051 14.9427H4.452C3.48012 14.6854 2.16505 14.571 0.792969 14.571V14.514C2.19374 14.514 3.48012 14.371 4.452 14.1423H4.48051C5.08092 13.9993 5.53815 13.5134 5.68113 12.9132C5.93836 11.9413 6.05281 10.6262 6.05281 9.25415H6.10984C6.10984 10.6549 6.25281 11.9413 6.48152 12.9132V12.9417C6.6245 13.5421 7.11042 13.9993 7.68214 14.1423H7.71066C8.68254 14.3997 9.96886 14.5425 11.3697 14.5425L11.3697 14.5425Z" fill="#05A1DC"/>
<path d="M6.10889 25.9485C5.42277 25.9771 4.76534 26.0343 4.27937 26.1487C3.99343 26.2345 3.76492 26.4632 3.67896 26.7492C3.5647 27.2351 3.47876 27.8925 3.47876 28.5787C3.47876 27.8926 3.42153 27.2351 3.27856 26.7492C3.19282 26.4632 2.9641 26.2347 2.67815 26.1487C2.19221 26.0345 1.5348 25.9485 0.848633 25.9485C1.53475 25.9485 2.19218 25.8913 2.67815 25.7483C2.96409 25.6626 3.1926 25.4339 3.27856 25.1479C3.39282 24.662 3.47876 24.0046 3.47876 23.3184C3.47876 24.0045 3.53599 24.662 3.67896 25.1479C3.7647 25.4339 3.99342 25.6624 4.27937 25.7483C4.76531 25.8628 5.42272 25.92 6.10889 25.9485Z" fill="#05A1DC"/>
<path d="M61.0388 44.3592C61.0388 44.9157 60.5878 45.3672 60.0309 45.3672H48.5866C48.0297 45.3672 47.5782 44.9157 47.5782 44.3592C47.5782 43.8023 48.0297 43.3508 48.5866 43.3508H60.0309C60.5878 43.3508 61.0388 43.8023 61.0388 44.3592ZM64.937 34.8493L48.587 34.8488C48.0301 34.8488 47.5786 35.3003 47.5786 35.8572C47.5786 36.4137 48.0301 36.8652 48.587 36.8652H64.9358C65.4927 36.8652 65.9437 36.4137 65.9437 35.8572C65.9437 35.3003 65.4927 34.8488 64.9358 34.8488L64.937 34.8493ZM48.587 26.3477C48.0301 26.3477 47.5786 26.7987 47.5786 27.3557C47.5786 27.9126 48.0301 28.3641 48.587 28.3641H64.9358C65.4927 28.3641 65.9437 27.9126 65.9437 27.3557C65.9437 26.7987 65.4927 26.3477 64.9358 26.3477H48.587ZM44.4638 24.8846H44.4634C44.026 24.5405 43.3926 24.616 43.048 25.0534L40.6102 28.1509L39.8709 26.7046H39.8713C39.613 26.2189 39.0134 26.0295 38.5236 26.2794C38.0336 26.5288 37.8339 27.1251 38.0749 27.6192L39.5277 30.4711C39.6838 30.7772 39.9853 30.983 40.3275 31.0168C40.6698 31.0501 41.0054 30.9071 41.2183 30.637L44.6304 26.3C44.9749 25.863 44.9004 25.2297 44.4635 24.8846H44.4638ZM44.4638 32.8967H44.4634C44.026 32.5526 43.3926 32.6281 43.048 33.0655L40.6102 36.163L39.8709 34.7157H39.8713C39.6182 34.2197 39.0111 34.0228 38.515 34.2755C38.019 34.5287 37.8217 35.1358 38.0748 35.6318L39.5276 38.4827V38.4832C39.6837 38.7893 39.9852 38.9951 40.3274 39.0289C40.6697 39.0622 41.0053 38.9192 41.2182 38.6491L44.6303 34.3121C44.7962 34.102 44.8717 33.8348 44.8408 33.569C44.8094 33.3032 44.6739 33.0608 44.4634 32.8953L44.4638 32.8967ZM44.4638 40.9088H44.4634C44.026 40.5647 43.3926 40.6402 43.048 41.0771L40.6102 44.1755L39.8709 42.7282L39.8713 42.7287C39.613 42.243 39.0134 42.0536 38.5236 42.3035C38.0336 42.5529 37.8339 43.1492 38.0749 43.6433L39.5277 46.4952C39.6838 46.8013 39.9853 47.0071 40.3275 47.0409C40.6698 47.0742 41.0054 46.9312 41.2183 46.6611L44.6304 42.3241C44.9749 41.8872 44.9004 41.2533 44.4635 40.9087L44.4638 40.9088ZM58.4627 4.12353V4.48968H60.2034C61.1996 4.49156 62.1541 4.88771 62.8588 5.59234C63.5629 6.29651 63.9596 7.25146 63.961 8.24724V8.61433H71.2014C72.1976 8.6162 73.1526 9.01235 73.8568 9.71699C74.5614 10.4212 74.9575 11.3761 74.9594 12.3719V24.1847C76.0789 22.759 77.2393 21.3714 78.4582 20.0525V20.053C78.8149 19.6447 79.2945 19.3638 79.8248 19.2522C80.355 19.1407 80.9073 19.2049 81.3981 19.4346L81.6147 19.5635H81.6142C82.0441 19.8851 82.3582 20.3371 82.5106 20.8518C82.6625 21.367 82.6438 21.917 82.4576 22.4204C82.2237 23.0927 81.9743 23.7584 81.7183 24.4233L82.9504 24.9535C83.4431 25.1663 83.6827 25.728 83.4956 26.2306C82.1769 29.6469 80.5336 32.9287 78.5894 36.0312C78.2857 36.4982 77.6612 36.6308 77.1942 36.3275C76.7273 36.0237 76.5946 35.3993 76.8984 34.9323C78.5942 32.2258 80.0503 29.3764 81.25 26.4163L80.9622 26.292H80.9626C79.31 30.2258 77.2993 33.9999 74.9566 37.5662V59.1129C74.9552 60.1087 74.5591 61.0632 73.8554 61.7673C73.1512 62.4715 72.1972 62.8681 71.2014 62.8705H32.7083C31.712 62.8691 30.757 62.4724 30.0529 61.7683C29.3487 61.0641 28.9521 60.1091 28.9507 59.1129V12.3721C28.9521 11.3764 29.3487 10.4214 30.0529 9.71724C30.757 9.01261 31.712 8.61645 32.7083 8.61458H39.9487V8.2475C39.9501 7.25172 40.3467 6.29673 41.0509 5.59259C41.7555 4.88796 42.7105 4.49181 43.7062 4.48993H45.4479V4.12379C45.4493 3.12755 45.846 2.17254 46.5501 1.4684C47.2548 0.764236 48.2092 0.367615 49.2055 0.366211H54.7047C55.7005 0.367617 56.6555 0.764236 57.3601 1.4684C58.0642 2.17257 58.4609 3.12752 58.4623 4.12379L58.4627 4.12353ZM72.9427 40.484C72.2597 41.4202 71.5541 42.3376 70.8265 43.2365V57.6865H70.826C70.826 58.243 70.375 58.6945 69.8181 58.6945C38.2403 58.6945 40.3502 58.7057 40.1906 58.6729C40.0368 58.6396 39.8933 58.5707 39.7719 58.4713C39.6275 58.3565 33.4836 51.7396 33.3439 51.5849C32.9407 51.1334 33.0837 53.1165 33.0837 15.1248C33.0837 14.5683 33.5352 14.1168 34.0917 14.1168H42.6987V13.3803H40.957C40.4005 13.3803 39.9491 12.9289 39.9491 12.3719V10.6307H32.7087C32.2469 10.6312 31.8043 10.815 31.478 11.1412C31.1512 11.468 30.9679 11.9106 30.967 12.3719V59.1127C30.9679 59.5744 31.1512 60.017 31.478 60.3433C31.8043 60.6701 32.2469 60.8534 32.7087 60.8543H71.2018C71.6636 60.8534 72.1062 60.6701 72.433 60.3433C72.7593 60.017 72.943 59.5745 72.9435 59.1127L72.9427 40.484ZM65.2223 46.6002C68.685 42.7127 71.6582 39.4761 75.2756 33.2254L72.3109 31.443C68.3235 37.8405 66.7554 42.4302 65.2224 46.5963L65.2223 46.6002ZM68.8102 16.1302H61.2112V17.1189C61.2107 17.5854 61.025 18.0327 60.695 18.3627C60.3654 18.6927 59.9177 18.8784 59.4513 18.8788H44.4599C43.993 18.8784 43.5457 18.6932 43.2152 18.3631C42.8852 18.0331 42.6995 17.5854 42.699 17.1189V16.1302H35.1005V49.9042H40.3943C40.9513 49.9042 41.4023 50.3557 41.4023 50.9122V56.675H68.8106V45.5982L65.625 49.1758H65.6246C65.3845 49.4482 65.0146 49.5668 64.6611 49.4847L64.1126 50.3966V50.3971C63.8168 50.8509 63.2148 50.9896 62.7502 50.7112C62.2851 50.4332 62.1234 49.8368 62.384 49.3619L62.9326 48.4501H62.9321C62.7005 48.1744 62.6344 47.7961 62.7582 47.4581C64.5294 42.6409 65.6521 39.1043 68.8106 33.4268L68.8102 16.1302ZM39.3855 55.1214V51.9208H36.408L39.3855 55.1214ZM59.192 13.3842H44.7143V16.8661H59.1944L59.192 13.3842ZM73.4141 29.7582L76.2443 31.46C77.9311 28.357 79.368 25.1244 80.541 21.793C80.5917 21.619 80.5846 21.4329 80.5199 21.2637L80.4098 21.1966V21.1962C80.2204 21.2215 80.0455 21.3096 79.9124 21.447C77.5307 24.0399 75.3588 26.8177 73.4169 29.7549L73.4141 29.7582ZM63.9608 10.631V12.3722C63.9608 12.9292 63.5093 13.3806 62.9528 13.3806H61.2111V14.1139H69.8182C70.3751 14.1139 70.8261 14.5653 70.8261 15.1218V30.0292C71.4117 29.1023 72.4102 27.633 72.9424 26.8829L72.9429 12.3716C72.9424 11.9103 72.7586 11.4677 72.4323 11.141C72.1055 10.8147 71.663 10.6309 71.2012 10.6304L63.9608 10.631ZM57.454 6.50636H57.4545C56.8975 6.50636 56.4461 6.05489 56.4461 5.4984V4.12384C56.4456 3.66205 56.2618 3.21949 55.9355 2.89319C55.6092 2.56642 55.1662 2.38311 54.7049 2.38218H49.2057C48.7439 2.38311 48.3013 2.56643 47.975 2.89319C47.6483 3.21949 47.465 3.66204 47.4645 4.12384V5.4984C47.4645 6.05489 47.013 6.50636 46.4561 6.50636H43.7065C43.2447 6.50682 42.8021 6.69061 42.4758 7.0169C42.1495 7.34367 41.9657 7.78623 41.9653 8.24756V11.3643H61.9446V8.24756C61.9441 7.78623 61.7608 7.34368 61.434 7.0169C61.1077 6.69059 60.6652 6.50682 60.2034 6.50636H57.454Z" fill="#05A1DC"/>
</svg>
