<svg width="85" height="72" viewBox="0 0 85 72" fill="none" xmlns="http://www.w3.org/2000/svg">
<circle cx="29.101" cy="45.7189" r="25.8846" fill="#05A1DC" fill-opacity="0.1"/>
<path d="M23.0239 60.6729L31.1958 62.1589V67.5212C31.1958 67.823 31.3157 68.1127 31.5292 68.3261C31.7426 68.5396 32.0323 68.6595 32.3341 68.6595H57.3771C57.6789 68.6595 57.9686 68.5396 58.182 68.3261C58.3955 68.1127 58.5154 67.823 58.5154 67.5212V64.1062C58.5154 63.9838 58.4956 63.8623 58.457 63.7464L57.2292 60.0636L57.8837 60.5002C58.0707 60.6247 58.2908 60.6912 58.5154 60.6912H61.9303C62.3247 60.6912 62.6911 60.4869 62.8984 60.1516C63.1063 59.8157 63.1251 59.3969 62.9482 59.0437L61.7347 56.6167L65.8519 59.3614V59.3619C66.0389 59.4864 66.2589 59.553 66.4835 59.553H72.1751C72.5207 59.553 72.848 59.396 73.0639 59.1256L77.2127 53.9397L78.3221 54.7716V54.7721C78.7266 55.0755 79.2835 55.0755 79.6881 54.7721L84.2413 51.3572C84.6164 51.0761 84.7805 50.5934 84.655 50.1416L79.8776 32.942C79.4349 31.3499 78.3159 30.0322 76.8158 29.3385C75.3162 28.6449 73.5874 28.6449 72.0877 29.3385C70.5876 30.0322 69.4685 31.3499 69.026 32.942L65.7264 44.821C65.6039 44.7773 65.4754 44.755 65.3453 44.7545H59.6527C59.6532 44.632 59.6339 44.5105 59.5952 44.3947L56.7764 35.9391V35.9386C56.3033 34.5041 55.2747 33.3189 53.922 32.6477L46.9249 29.1493L46.3365 27.384C48.9576 25.713 50.5452 22.82 50.5472 19.7115V9.46661C50.5487 6.24329 48.8458 3.25973 46.0696 1.62238C43.2935 -0.0154939 39.8582 -0.0621975 37.0383 1.49839H34.6108C32.8001 1.50042 31.0642 2.22051 29.7837 3.50117C28.5032 4.78184 27.783 6.51777 27.7809 8.32828V11.4673C27.7885 14.2587 26.6786 16.9379 24.6992 18.9066C24.3735 19.2323 24.2764 19.7217 24.4523 20.147C24.6286 20.5724 25.0438 20.8498 25.5042 20.8498H29.7887C30.6841 20.8508 31.5642 20.6232 32.3468 20.1882C32.5028 23.1239 34.0665 25.8035 36.5449 27.3839L35.9565 29.1487L28.9589 32.648C27.6062 33.3198 26.578 34.5044 26.1045 35.939L23.2862 44.3945C23.1012 44.9489 23.3665 45.5537 23.9 45.793L24.3101 45.977L22.1234 54.7231C22.1005 54.8131 22.0894 54.9061 22.0894 54.9991V59.5523C22.0894 60.1027 22.4827 60.5738 23.0239 60.6724L23.0239 60.6729ZM33.4724 62.5726L34.6108 62.7794V62.9679C34.6108 63.5965 35.1205 64.1062 35.7491 64.1062C35.7867 64.1062 35.8248 64.1042 35.8624 64.1006L45.9939 63.0873V66.3828H33.4725L33.4724 62.5726ZM33.2814 48.676L32.3514 47.281V47.2815C31.5968 46.1518 31.1943 44.8234 31.1958 43.4651V42.618L33.6366 32.8543L35.7491 31.7978V35.6478C35.7491 35.9497 35.869 36.2393 36.0824 36.4528C36.2959 36.6662 36.5855 36.7861 36.8874 36.7861H45.9939C46.2958 36.7861 46.5854 36.6662 46.7989 36.4528C47.0123 36.2393 47.1322 35.9497 47.1322 35.6478V31.7978L49.2447 32.8538L51.6855 42.618V43.4651V43.4646C51.6855 43.8976 51.6443 44.3295 51.563 44.7544H48.2705C47.7806 44.7544 47.3456 45.0679 47.1906 45.5329L44.914 52.3628C44.7981 52.7099 44.8566 53.0915 45.0705 53.3883C45.2844 53.6851 45.628 53.8609 45.9939 53.8609H47.1322L45.7296 54.9128L35.9961 52.75C35.9762 52.7454 35.9559 52.7434 35.9361 52.7403L35.9366 52.7388L33.4725 52.3272V49.3076C33.4725 49.083 33.4059 48.8629 33.2814 48.6764L33.2814 48.676ZM38.0257 32.1698C40.1418 33.3797 42.7395 33.3797 44.8556 32.1698V34.5088H38.0257V32.1698ZM55.1005 55.6659L54.2955 56.4709C54.2091 56.5572 54.137 56.6574 54.0826 56.7666L52.1205 60.6907H47.1322C47.0946 60.6907 47.0565 60.6928 47.0189 60.6963L36.8874 61.7096V55.2802L45.747 57.2489C46.0712 57.3205 46.4112 57.2473 46.6769 57.0481L50.9268 53.8609H55.1005L55.1005 55.6659ZM56.2388 66.3823H48.2706V62.9674H52.8238C53.2548 62.9674 53.6491 62.724 53.8417 62.3383L54.8896 60.2431L56.2388 64.2907L56.2388 66.3823ZM58.8599 58.4141L56.8872 57.099L57.0437 56.9425C57.2571 56.7291 57.377 56.4394 57.377 56.1375V53.4259L58.5154 52.8567V54.9992C58.5154 55.1761 58.5565 55.3504 58.6358 55.5084L60.0887 58.4142L58.8599 58.4141ZM71.6279 57.2758H66.8281L60.792 53.2515V51.7184L61.0609 51.5842H64.9663L69.2162 54.7715H69.2157C69.6202 55.0749 70.1771 55.0749 70.5816 54.7715L74.4519 51.8688L75.3905 52.5727L71.6279 57.2758ZM71.2193 33.5507H71.2198C71.4831 32.6024 72.1498 31.8173 73.0438 31.4042C73.9371 30.991 74.9667 30.991 75.86 31.4042C76.7539 31.8173 77.4206 32.6024 77.6839 33.5507L81.4424 47.0817L79.4849 45.3686V45.3691C77.0102 43.2033 75.5902 40.075 75.5902 36.786H73.3136C73.3136 40.7309 75.0165 44.4844 77.9857 47.0822L81.7518 50.3777L79.0051 52.4379L75.1349 49.5352C74.7304 49.2319 74.1734 49.2319 73.7689 49.5352L69.8986 52.4379L66.6503 50.0016L71.2193 33.5507ZM64.2071 49.3076H61.9304V47.031H64.2071V49.3076ZM59.6538 49.7426L55.9701 51.5842H47.5735L49.0914 47.0309H59.6538V49.7426ZM54.6167 36.6578L57.1098 44.1371L55.7358 44.7541H53.8697C53.9307 44.3272 53.9617 43.8963 53.9622 43.4643V42.4774C53.9622 42.3844 53.951 42.2914 53.9282 42.2015L51.9264 34.1952L52.9036 34.6835C53.7157 35.0865 54.3326 35.7975 54.6167 36.6578H54.6167ZM48.2706 9.46573V10.604H42.0501L40.1114 7.6962C39.9 7.3791 39.5448 7.18905 39.1642 7.18905C38.7836 7.18905 38.4284 7.3791 38.217 7.6962L36.2783 10.604H34.611V9.46573C34.611 7.02544 35.913 4.77066 38.026 3.55104C40.139 2.33091 42.7429 2.33091 44.8559 3.55104C46.9689 4.77066 48.2708 7.02544 48.2708 9.46573H48.2706ZM29.7883 18.5723H27.9075C29.3157 16.4705 30.0637 13.9961 30.0571 11.4664V8.32741C30.0586 7.16878 30.5012 6.05377 31.2955 5.20973C32.0893 4.36564 33.1752 3.85546 34.3319 3.78326C33.037 5.3942 32.3322 7.39946 32.3337 9.46573V17.1407C31.7961 18.0321 30.8296 18.5758 29.7883 18.5723H29.7883ZM34.6103 19.7106V12.8807H36.8869C37.2676 12.8807 37.6228 12.6906 37.8342 12.3735L39.1636 10.3795L40.493 12.3735C40.7044 12.6906 41.0596 12.8807 41.4403 12.8807H48.2702V19.7106C48.2702 22.1509 46.9682 24.4056 44.8552 25.6253C42.7422 26.8454 40.1383 26.8454 38.0253 25.6253C35.9123 24.4056 34.6104 22.1509 34.6104 19.7106H34.6103ZM41.4402 28.8171C42.3991 28.8171 43.3525 28.6652 44.2641 28.3669L44.6544 29.5372L44.1727 29.8985H44.1722C43.3825 30.4859 42.4245 30.8036 41.4402 30.8036C40.4559 30.8036 39.4979 30.4859 38.7083 29.8985L38.2265 29.5372L38.6168 28.3669H38.6163C39.5279 28.6652 40.4813 28.8171 41.4402 28.8171ZM28.2631 36.6578C28.5476 35.7975 29.1641 35.0866 29.9756 34.6835L30.9533 34.1947L28.9516 42.201H28.9521C28.9292 42.2909 28.9181 42.3839 28.9181 42.4769V43.4638C28.9181 44.2078 29.009 44.9487 29.1879 45.6703L25.7703 44.1366L28.2631 36.6578ZM30.6378 48.8159L31.1947 49.6514V51.9473L29.1052 51.5992L28.7312 53.8448L34.6098 54.8246V60.4644L24.365 58.602V55.1388L26.419 46.9231L30.6378 48.8159Z" fill="#05A1DC"/>
<path d="M22.0893 27.4203V27.4776C20.2313 27.4776 18.5161 27.6491 17.201 27.992H17.1725C16.3721 28.1922 15.7717 28.8209 15.543 29.5928V29.6213C15.2 30.9364 15.0285 32.6514 15.0285 34.5097H14.9715C14.9715 32.6517 14.8 30.9364 14.457 29.6213V29.5928C14.2568 28.7924 13.6281 28.192 12.8275 27.9633H12.799C11.5125 27.6203 9.79721 27.4488 7.93921 27.4488V27.3918C9.79721 27.3918 11.5125 27.2203 12.8275 26.8774H12.8561C13.6565 26.6772 14.2568 26.0485 14.4568 25.2478V25.2193C14.7998 23.9043 14.9713 22.1892 14.9713 20.331H15.0283C15.0283 22.189 15.1998 23.9043 15.5428 25.2193V25.2478C15.743 26.0483 16.3717 26.6486 17.1435 26.8774H17.172C18.4871 27.2203 20.2021 27.3918 22.0604 27.3918L22.0893 27.4203Z" fill="#05A1DC"/>
<path d="M11.3697 20.3313V20.3598C9.96888 20.3598 8.68251 20.5028 7.71063 20.7315C7.11022 20.8745 6.65299 21.3604 6.48152 21.9321V21.9606C6.2243 22.9325 6.10984 24.2476 6.10984 25.6197H6.05281C6.05281 24.2189 5.90984 22.9325 5.68113 21.9606V21.9321C5.53816 21.3317 5.05224 20.8745 4.48051 20.7315H4.452C3.48012 20.4743 2.16505 20.3598 0.792969 20.3598V20.3028C2.19374 20.3028 3.48012 20.1598 4.452 19.9311H4.48051C5.08092 19.7881 5.53815 19.3022 5.68113 18.702C5.93836 17.7301 6.05281 16.4151 6.05281 15.043H6.10984C6.10984 16.4437 6.25281 17.7301 6.48152 18.702V18.7305C6.6245 19.3309 7.11042 19.7881 7.68214 19.9311H7.71066C8.68254 20.1886 9.96886 20.3313 11.3697 20.3313L11.3697 20.3313Z" fill="#05A1DC"/>
<path d="M6.10864 31.7374C5.42252 31.7659 4.76509 31.8231 4.27913 31.9376C3.99318 32.0233 3.76468 32.252 3.67872 32.538C3.56446 33.0239 3.47851 33.6813 3.47851 34.3675C3.47851 33.6814 3.42129 33.0239 3.27832 32.538C3.19257 32.252 2.96386 32.0235 2.6779 31.9376C2.19196 31.8233 1.53456 31.7374 0.848389 31.7374C1.53451 31.7374 2.19194 31.6801 2.6779 31.5372C2.96385 31.4514 3.19235 31.2227 3.27832 30.9368C3.39257 30.4508 3.47851 29.7934 3.47851 29.1072C3.47851 29.7934 3.53574 30.4508 3.67872 30.9368C3.76446 31.2227 3.99317 31.4512 4.27913 31.5372C4.76507 31.6516 5.42247 31.7089 6.10864 31.7374Z" fill="#05A1DC"/>
</svg>
