<svg width="108" height="70" viewBox="0 0 108 70" fill="none" xmlns="http://www.w3.org/2000/svg">
<circle cx="29.101" cy="43.7189" r="25.8846" fill="#05A1DC" fill-opacity="0.1"/>
<path d="M22.0893 25.4203V25.4776C20.2313 25.4776 18.5161 25.6491 17.201 25.992H17.1725C16.3721 26.1922 15.7717 26.8209 15.543 27.5928V27.6213C15.2 28.9364 15.0285 30.6514 15.0285 32.5097H14.9715C14.9715 30.6517 14.8 28.9364 14.457 27.6213V27.5928C14.2568 26.7924 13.6281 26.192 12.8275 25.9633H12.799C11.5125 25.6203 9.79721 25.4488 7.93921 25.4488V25.3918C9.79721 25.3918 11.5125 25.2203 12.8275 24.8774H12.8561C13.6565 24.6772 14.2568 24.0485 14.4568 23.2478V23.2193C14.7998 21.9043 14.9713 20.1892 14.9713 18.331H15.0283C15.0283 20.189 15.1998 21.9043 15.5428 23.2193V23.2478C15.743 24.0483 16.3717 24.6486 17.1435 24.8774H17.172C18.4871 25.2203 20.2021 25.3918 22.0604 25.3918L22.0893 25.4203Z" fill="#05A1DC"/>
<path d="M11.3697 18.3313V18.3598C9.96888 18.3598 8.68251 18.5028 7.71063 18.7315C7.11022 18.8745 6.65299 19.3604 6.48152 19.9321V19.9606C6.2243 20.9325 6.10984 22.2476 6.10984 23.6197H6.05281C6.05281 22.2189 5.90984 20.9325 5.68113 19.9606V19.9321C5.53816 19.3317 5.05224 18.8745 4.48051 18.7315H4.452C3.48012 18.4743 2.16505 18.3598 0.792969 18.3598V18.3028C2.19374 18.3028 3.48012 18.1598 4.452 17.9311H4.48051C5.08092 17.7881 5.53815 17.3022 5.68113 16.702C5.93836 15.7301 6.05281 14.4151 6.05281 13.043H6.10984C6.10984 14.4437 6.25281 15.7301 6.48152 16.702V16.7305C6.6245 17.3309 7.11042 17.7881 7.68214 17.9311H7.71066C8.68254 18.1886 9.96886 18.3313 11.3697 18.3313L11.3697 18.3313Z" fill="#05A1DC"/>
<path d="M6.10864 29.7374C5.42252 29.7659 4.76509 29.8231 4.27913 29.9376C3.99318 30.0233 3.76468 30.252 3.67872 30.538C3.56446 31.0239 3.47851 31.6813 3.47851 32.3675C3.47851 31.6814 3.42129 31.0239 3.27832 30.538C3.19257 30.252 2.96386 30.0235 2.6779 29.9376C2.19196 29.8233 1.53456 29.7374 0.848389 29.7374C1.53451 29.7374 2.19194 29.6801 2.6779 29.5372C2.96385 29.4514 3.19235 29.2227 3.27832 28.9368C3.39257 28.4508 3.47851 27.7934 3.47851 27.1072C3.47851 27.7934 3.53574 28.4508 3.67872 28.9368C3.76446 29.2227 3.99317 29.4512 4.27913 29.5372C4.76507 29.6516 5.42247 29.7089 6.10864 29.7374Z" fill="#05A1DC"/>
<path d="M52.8747 14.5204H51.7787C51.1734 14.5204 50.6826 15.0112 50.6826 15.6164C50.6826 16.2217 51.1734 16.7125 51.7787 16.7125H52.8747C53.48 16.7125 53.9707 16.2217 53.9707 15.6164C53.9707 15.0112 53.48 14.5204 52.8747 14.5204Z" fill="#05A1DC"/>
<path d="M74.3873 33.1758C73.8402 32.4403 73.2179 31.7632 72.5309 31.1564L71.7979 9.79801V9.79752C71.7099 7.24193 70.6329 4.81936 68.7936 3.04215C66.9543 1.26493 64.497 0.271729 61.9394 0.271729H58.3553C55.4494 0.275154 52.6637 1.43089 50.6086 3.48545C48.5541 5.5405 47.3983 8.3262 47.3949 11.2321C47.3949 11.537 47.5221 11.8276 47.7462 12.0346L46.3234 18.675C46.2539 18.9984 46.3346 19.336 46.5426 19.5934C46.7505 19.8508 47.0642 20.0005 47.3949 20.0005H48.76L50.7252 26.8776C50.8778 27.4139 51.4092 27.7501 51.9592 27.6581L55.743 27.0274L55.2561 28.9753V28.9748C52.0751 29.8884 49.1986 31.6425 46.9301 34.0518L47.9845 29.8345L47.984 29.835C48.3672 28.2849 47.9136 26.6477 46.7877 25.5155C46.7104 25.4381 46.6306 25.3648 46.5489 25.2943C46.6933 24.463 46.5842 23.6071 46.2348 22.8385C45.8859 22.0703 45.3134 21.425 44.5922 20.9865C43.1209 20.1073 41.331 19.9404 39.7227 20.5325V19.3615C39.7232 17.6417 38.8106 16.0504 37.3255 15.1819C35.8406 14.3139 34.0061 14.2992 32.5073 15.1433C30.6867 14.0208 28.4607 13.7674 26.4346 14.4519C24.4084 15.1359 22.7918 16.6871 22.024 18.6834L19.5183 25.198C19.0202 26.4799 18.9688 27.8921 19.3725 29.2069C19.7762 30.5216 20.6109 31.6618 21.7427 32.4436L21.6331 32.9104V32.91C21.3982 33.9135 21.635 34.9694 22.2755 35.7768C22.916 36.5842 23.8903 37.0549 24.9207 37.0549C25.045 37.0544 25.1693 37.0466 25.2926 37.0324L25.1472 37.6146C24.8884 38.6427 25.1071 39.7328 25.7417 40.5818C26.3764 41.4313 27.3594 41.95 28.4187 41.9935L27.1911 44.6579L22.8749 46.3841C22.5755 46.504 22.344 46.7496 22.2422 47.0554L20.0501 53.6317C19.8701 54.1724 20.1343 54.761 20.6584 54.9856L22.139 55.6203L18.0557 64.48L20.0467 65.3975L24.1544 56.4843L28.3307 58.2737C28.3355 58.2757 28.3404 58.2776 28.3453 58.2796L46.978 65.9519H46.9776C47.2481 66.0634 47.552 66.062 47.8216 65.948C48.0912 65.8344 48.3041 65.6172 48.4127 65.3456L50.1399 61.028L50.8431 66.1828L53.0151 65.8867L50.0411 44.0786L50.0406 44.0781C49.7779 42.165 50.2481 40.2229 51.3574 38.642L53.3146 35.8457L52.9173 37.2363C52.8229 37.5666 52.8889 37.9228 53.0964 38.1973C53.3034 38.4718 53.6273 38.6333 53.9713 38.6333H60.5475C60.9624 38.6333 61.3422 38.3989 61.5276 38.0275L63.8357 33.4119V47.4011C63.8357 48.0064 64.3264 48.4972 64.9317 48.4972H65.0359L65.9876 58.0132L60.802 64.2362L62.4857 65.6395L67.9659 59.0633C68.1543 58.8372 68.2438 58.5451 68.2145 58.2525L67.2388 48.4972H73.7001V59.0036L68.5408 64.1629L70.0909 65.713L75.5711 60.2328C75.7766 60.0273 75.8921 59.7483 75.8921 59.4577V48.4973C76.4973 48.4973 76.9881 48.0065 76.9881 47.4012V41.027C76.995 38.1974 76.0824 35.4421 74.3874 33.1756L74.3873 33.1758ZM74.7959 41.0272V46.3054H66.0275V30.2418L66.9846 30.529C69.2427 31.2062 71.222 32.5933 72.6288 34.4845C74.036 36.3757 74.7959 38.67 74.7959 41.0269L74.7959 41.0272ZM58.3552 2.46405H61.9393C63.9308 2.45671 65.8464 3.22687 67.2786 4.61067C68.7109 5.99443 69.5461 7.88263 69.6068 9.87317L70.2825 29.5618H70.283C69.4375 29.0877 68.543 28.708 67.6148 28.4296L65.7001 27.8551L62.8861 22.2271C63.5795 21.0141 65.3424 17.9291 66.3132 16.2302C66.6224 15.6851 66.7447 15.0534 66.6606 14.4325C66.5769 13.811 66.2916 13.2346 65.8483 12.7913L65.8204 12.7634V12.7629C65.2949 12.2344 64.5801 11.9384 63.8348 11.9404H63.8343C63.0886 11.9384 62.3732 12.2349 61.8478 12.7639L60.6651 13.947L58.3552 10.8663V5.75162H56.1631V10.1358H49.6548C49.9244 8.01811 50.9569 6.07066 52.5579 4.65846C54.1594 3.24675 56.2203 2.46637 58.3552 2.46349L58.3552 2.46405ZM58.5353 26.5619C58.8343 26.512 59.099 26.3408 59.2673 26.0883L59.9978 24.9923L58.1738 23.7763L57.7065 24.4775L52.5638 25.3348L50.6404 18.6035H50.6409C50.5064 18.1328 50.0763 17.8083 49.587 17.8083H48.7507L49.9251 12.3281H56.7113L59.6706 16.2739C59.8614 16.5283 60.153 16.6869 60.4701 16.7094C60.7867 16.7319 61.0979 16.6159 61.323 16.3908L63.3991 14.3132V14.3137C63.6393 14.073 64.0288 14.0725 64.27 14.3123L64.2979 14.3401H64.2974C64.5142 14.5505 64.5602 14.8808 64.4104 15.1421C63.1833 17.2882 60.6917 21.6483 60.6917 21.6483V21.6488C60.5096 21.9669 60.4994 22.3549 60.6633 22.6827L63.2586 27.8733L57.6144 28.5789L58.1008 26.6345L58.5353 26.5619ZM43.0103 49.5939H43.7379L42.2792 54.5579L33.1459 52.0467V49.5939C33.1459 49.3565 33.0691 49.1261 32.9267 48.9362L29.6473 44.5638L30.7957 42.0718C31.2968 42.5943 31.95 42.9461 32.6619 43.0763C33.3743 43.2069 34.1098 43.1091 34.7634 42.7969C34.9772 42.6946 35.1808 42.5708 35.3696 42.427C35.6016 42.6667 35.8722 42.8654 36.1701 43.0151C36.9486 43.4041 37.8578 43.4364 38.6617 43.1037C39.4657 42.7705 40.0856 42.105 40.3605 41.2796L40.5279 40.7776V40.7771C41.0999 41.2194 41.802 41.4597 42.5247 41.4597C42.5746 41.4597 42.624 41.4558 42.6739 41.4533C42.169 43.16 41.913 44.9309 41.914 46.7104V48.4979C41.914 49.1032 42.4048 49.594 43.0101 49.594L43.0103 49.5939ZM41.3961 30.2835C40.8344 30.8775 40.0965 31.2758 39.291 31.4187C38.4861 31.5615 37.6563 31.4417 36.9242 31.0771L32.5401 28.885C31.8085 28.5185 31.214 27.9265 30.8451 27.1965C30.4762 26.4665 30.3519 25.6371 30.4904 24.8307L41.3961 30.2835ZM45.2376 27.0657H45.2371C45.8204 27.6524 46.0552 28.5004 45.8571 29.3033L43.57 38.4513V38.4518C43.4252 39.0277 42.841 39.3785 42.2641 39.2352C41.9734 39.1623 41.7258 38.9714 41.5815 38.7087C41.4371 38.4459 41.4092 38.1347 41.5042 37.8499L44.0505 30.2115L44.049 30.211C44.2227 29.6943 43.9888 29.1282 43.5005 28.885L40.9023 27.5854L42.359 26.7115C42.8092 26.4404 43.3376 26.3283 43.8593 26.3924C44.3809 26.4565 44.8663 26.6938 45.2371 27.0657L45.2376 27.0657ZM32.1402 39.1564L33.0136 37.2613L33.0919 37.091L33.7525 37.4213H33.752C34.0118 37.552 34.3132 37.5735 34.5887 37.4815C34.8647 37.3895 35.0927 37.1913 35.2223 36.9315L35.3207 36.7343L34.5011 39.9891C34.415 40.3321 34.188 40.6228 33.8763 40.7896C33.5651 40.957 33.1971 40.9854 32.8639 40.8674C32.5302 40.75 32.2616 40.4975 32.1241 40.1716C31.9861 39.8463 31.992 39.4778 32.1397 39.1563L32.1402 39.1564ZM36.7284 40.1326L38.3563 33.6634L38.3559 33.6629C39.1583 33.6977 39.9598 33.5714 40.7128 33.292L38.2814 40.586C38.2071 40.8087 38.0402 40.9882 37.823 41.0783C37.6062 41.1678 37.3611 41.1595 37.1511 41.0543C36.8126 40.8831 36.6369 40.5009 36.7279 40.1325L36.7284 40.1326ZM32.5409 31.3358L34.9645 32.5473L33.7525 34.9709L31.3289 33.7589L32.5409 31.3358ZM43.4641 22.866C43.9652 23.1698 44.3062 23.6792 44.3963 24.258C43.3066 24.0564 42.1811 24.2604 41.2314 24.8315L38.5784 26.4237L37.1227 25.6956L39.1117 23.5074C39.6524 22.9153 40.3805 22.5283 41.1737 22.4113C41.9668 22.2944 42.7756 22.4554 43.4641 22.8659L43.4641 22.866ZM37.5304 19.3615V21.99C37.5172 22.0047 37.503 22.0184 37.4898 22.0326L36.4236 23.2054C36.3839 22.4959 36.222 21.7991 35.945 21.145L35.8966 20.6136V20.6131C35.7728 19.2068 35.2341 17.8691 34.3493 16.7687C35.1293 16.6048 35.941 16.802 36.5591 17.3055C37.1766 17.809 37.5338 18.565 37.5304 19.3615L37.5304 19.3615ZM21.5645 25.9847L24.0702 19.4701C24.6456 17.9739 25.9037 16.8445 27.4533 16.433C29.0029 16.022 30.6552 16.3787 31.8972 17.3925C32.0009 17.4772 32.0993 17.5662 32.1947 17.6573C30.5379 17.1009 28.7231 17.2683 27.196 18.1187C25.6689 18.9686 24.5709 20.4229 24.1707 22.1242L22.3084 30.0406C21.8211 29.4994 21.4937 28.834 21.3621 28.1181C21.231 27.4017 21.3009 26.6634 21.5647 25.9847L21.5645 25.9847ZM24.6285 34.826C24.0046 34.6674 23.6215 34.0392 23.7668 33.4119L26.3049 22.6262H26.3044C26.6083 21.3349 27.5296 20.276 28.7671 19.797C30.0045 19.3175 31.3986 19.4795 32.4931 20.2291C33.5882 20.9792 34.2424 22.2205 34.2424 23.5475V24.2551L30.3485 22.3081V22.3086C29.8068 22.0375 29.1487 22.2572 28.8782 22.7984C28.5024 23.5475 28.2881 24.3671 28.2499 25.2043L26.0588 33.9683H26.0583C25.9825 34.2716 25.7892 34.5324 25.5211 34.6934C25.2529 34.8544 24.932 34.9019 24.6286 34.826L24.6285 34.826ZM27.2737 38.1459L28.1852 34.5002V34.4997L29.5171 29.1727C29.8362 29.5842 30.2085 29.9521 30.6239 30.2663L28.8777 33.7589H28.8782C28.6071 34.3006 28.8268 34.9587 29.368 35.2293L31.1299 36.11L30.1493 38.2385L30.1488 38.2399L29.7848 39.0297H29.7843C29.4956 39.6565 28.7773 39.9603 28.1266 39.7313C27.4758 39.5023 27.1064 38.8154 27.2737 38.146L27.2737 38.1459ZM23.9219 48.9473L26.3254 50.149L24.9021 54.4192L22.4487 53.3677L23.9219 48.9473ZM46.7885 63.5027L29.1867 56.2552L26.9237 55.2854L28.7058 49.9397C28.8785 49.4225 28.6441 48.8569 28.1563 48.6132L25.9549 47.5127L28.3893 46.539L30.9543 49.9588V52.8814C30.9543 53.3746 31.2841 53.8076 31.7597 53.9383L42.7373 56.9568C42.7387 56.9573 42.7402 56.9573 42.7417 56.9578L45.1299 57.6037L45.7024 55.4874L44.3954 55.1336L46.0228 49.5933H48.5799L49.5389 56.6256L46.7885 63.5027ZM49.5614 37.3843C48.135 39.417 47.5303 41.9138 47.8684 44.3736L48.2813 47.4009H44.1066V46.7095C44.1032 43.6529 44.9624 40.6569 46.5859 38.0669C48.2094 35.4765 50.5307 33.397 53.283 32.0671L49.5614 37.3843ZM59.8701 36.4405H55.4243L57.0185 30.8619L63.036 30.1099L59.8701 36.4405Z" fill="#05A1DC"/>
<path fill-rule="evenodd" clip-rule="evenodd" d="M71.3683 63.3916H87.6795C87.8948 63.3916 88.1013 63.3061 88.2535 63.1539C88.4057 63.0017 88.4913 62.7951 88.4913 62.5799V60.1446C88.4913 60.0573 88.4771 59.9707 88.4496 59.8881L87.5741 57.2618L88.0408 57.5731C88.1742 57.6619 88.3311 57.7094 88.4912 57.7094H90.9265C91.2077 57.7094 91.469 57.5637 91.6168 57.3245C91.7651 57.085 91.7785 56.7864 91.6523 56.5345L90.787 54.8038L93.723 56.7611V56.7614C93.8563 56.8502 94.0133 56.8977 94.1734 56.8977H98.2322C98.4786 56.8977 98.712 56.7857 98.866 56.5929L101.825 52.8948L102.616 53.488V53.4884C102.904 53.7047 103.301 53.7047 103.59 53.4884L106.837 51.0531C107.104 50.8527 107.221 50.5085 107.132 50.1863L103.725 37.9211C103.409 36.7857 102.611 35.8461 101.541 35.3514C100.472 34.8567 99.2393 34.8567 98.1698 35.3514C97.1001 35.8461 96.3021 36.7857 95.9865 37.9211L93.6335 46.3922C93.5462 46.361 93.4545 46.3451 93.3617 46.3447H89.3022C89.3026 46.2574 89.2888 46.1707 89.2613 46.0881L87.2511 40.0584V40.058C86.9138 39.035 86.1803 38.1899 85.2156 37.7112L80.226 35.2165L79.8063 33.9576C81.6755 32.766 82.8077 30.703 82.809 28.4862V21.1805C82.8101 18.8819 81.5958 16.7543 79.6161 15.5867C77.6363 14.4187 75.1866 14.3854 73.1757 15.4983H71.4446C71.2606 15.4985 71.0776 15.5091 70.8965 15.5298L70.9693 17.1568C71.0607 17.1432 71.1529 17.1335 71.2457 17.1277C71.1542 17.2415 71.0668 17.3581 70.9837 17.4773L71.4443 27.768V23.6151H73.0678C73.3392 23.6151 73.5925 23.4796 73.7433 23.2535L74.6913 21.8315L75.6393 23.2535C75.7901 23.4796 76.0434 23.6151 76.3148 23.6151H81.1853V28.4856C81.1853 30.2258 80.2568 31.8337 78.75 32.7034C77.2432 33.5735 75.3863 33.5735 73.8796 32.7034C72.6116 31.9715 71.7531 30.7169 71.5129 29.3006L71.5408 29.9255L74.1437 35.1312L74.3013 34.6586C74.9513 34.8713 75.6311 34.9796 76.3148 34.9796C76.9986 34.9796 77.6784 34.8712 78.3285 34.6585L78.6068 35.4931L78.2633 35.7507H78.2629C77.6998 36.1697 77.0167 36.3961 76.3148 36.3961C75.6677 36.3961 75.0366 36.2037 74.5008 35.8455L75.5574 37.9587C76.641 38.128 77.7684 37.9319 78.7503 37.3704V39.0384H75.9307L75.7565 40.6624H79.5621C79.7773 40.6624 79.9839 40.5769 80.1361 40.4247C80.2883 40.2725 80.3738 40.0659 80.3738 39.8506V37.1052L81.8802 37.8582L83.6208 44.8211V45.4249C83.6208 45.7336 83.5914 46.0416 83.5334 46.3446H81.1855C80.8362 46.3446 80.526 46.5682 80.4154 46.8998L78.7919 51.7703C78.7093 52.0178 78.751 52.2899 78.9036 52.5016C79.0561 52.7132 79.3011 52.8386 79.562 52.8386H80.3738L79.3736 53.5887L74.4863 52.5028L74.3121 54.1271L79.386 55.2546C79.6172 55.3057 79.8596 55.2535 80.0491 55.1114L83.0798 52.8386H86.056L86.056 54.1258L85.482 54.6998C85.4204 54.7614 85.3689 54.8328 85.3302 54.9107L83.931 57.709H80.3738C80.347 57.709 80.3198 57.7105 80.293 57.713L73.5636 58.386L73.2312 60.0512L79.5621 59.418V61.7681H72.7146L71.3683 63.3916ZM81.1856 61.7678H86.8678L86.8678 60.2762L85.9056 57.3898L85.1584 58.8839C85.0211 59.1589 84.7398 59.3325 84.4325 59.3325H81.1856V61.7678ZM87.3301 55.1477L88.7369 56.0855L89.6132 56.0856L88.5771 54.0135C88.5206 53.9007 88.4912 53.7764 88.4912 53.6503V52.1225L87.6795 52.5284V54.4621C87.6795 54.6773 87.594 54.8839 87.4418 55.0361L87.3301 55.1477ZM94.4191 55.2738H97.8419L100.525 51.9199L99.8558 51.418L97.0958 53.4879C96.8074 53.7043 96.4102 53.7043 96.1217 53.4879H96.1221L93.0914 51.215H90.3065L90.1148 51.3107V52.404L94.4191 55.2738ZM97.5509 38.3552H97.5506L94.2924 50.0865L96.6088 51.8238L99.3687 49.7539C99.6572 49.5376 100.054 49.5376 100.343 49.7539L103.103 51.8238L105.061 50.3547L102.376 48.0046C100.258 46.1521 99.044 43.4755 99.044 40.6623H100.667C100.667 43.0077 101.68 45.2386 103.445 46.783V46.7827L104.841 48.0043L102.161 38.3552C101.973 37.6789 101.497 37.1191 100.86 36.8244C100.223 36.5298 99.4887 36.5298 98.8516 36.8244C98.2141 37.1191 97.7386 37.6789 97.5509 38.3552ZM90.9265 49.5916H92.55V47.9681H90.9265V49.5916ZM86.6762 51.215L89.3031 49.9018V47.9681H81.7709L80.6884 51.215H86.6762ZM87.4889 45.9045L85.7111 40.5709C85.5084 39.9573 85.0685 39.4504 84.4894 39.163L83.7926 38.8147L85.22 44.5241C85.2363 44.5883 85.2443 44.6546 85.2443 44.7209V45.4247C85.244 45.7327 85.2219 46.04 85.1784 46.3444H86.5091L87.4889 45.9045ZM81.1856 21.9916V21.1799H81.1857C81.1857 19.4397 80.2573 17.8318 78.7505 16.9621C77.2437 16.092 75.3868 16.092 73.88 16.9621C72.3733 17.8318 71.4448 19.4397 71.4448 21.1799V21.9916H72.6338L74.0162 19.918C74.167 19.6919 74.4203 19.5564 74.6917 19.5564C74.9631 19.5564 75.2164 19.6919 75.3672 19.918L76.7497 21.9916H81.1856Z" fill="#05A1DC"/>
</svg>
