<svg width="91" height="72" viewBox="0 0 91 72" fill="none" xmlns="http://www.w3.org/2000/svg">
<circle cx="29.101" cy="45.7189" r="25.8846" fill="#05A1DC" fill-opacity="0.1"/>
<path d="M22.0896 27.4203V27.4776C20.2316 27.4776 18.5163 27.6491 17.2012 27.992H17.1727C16.3723 28.1922 15.772 28.8209 15.5432 29.5928V29.6213C15.2002 30.9364 15.0288 32.6514 15.0288 34.5097H14.9717C14.9717 32.6517 14.8002 30.9364 14.4573 29.6213V29.5928C14.2571 28.7924 13.6284 28.192 12.8278 27.9633H12.7993C11.5127 27.6203 9.79745 27.4488 7.93945 27.4488V27.3918C9.79745 27.3918 11.5127 27.2203 12.8278 26.8774H12.8563C13.6567 26.6772 14.2571 26.0485 14.4571 25.2478V25.2193C14.8001 23.9043 14.9715 22.1892 14.9715 20.331H15.0286C15.0286 22.189 15.2 23.9043 15.543 25.2193V25.2478C15.7432 26.0483 16.3719 26.6486 17.1438 26.8774H17.1723C18.4874 27.2203 20.2024 27.3918 22.0606 27.3918L22.0896 27.4203Z" fill="#05A1DC"/>
<path d="M11.3697 20.3313V20.3598C9.96888 20.3598 8.68251 20.5028 7.71063 20.7315C7.11022 20.8745 6.65299 21.3604 6.48152 21.9321V21.9606C6.2243 22.9325 6.10984 24.2476 6.10984 25.6197H6.05281C6.05281 24.2189 5.90984 22.9325 5.68113 21.9606V21.9321C5.53816 21.3317 5.05224 20.8745 4.48051 20.7315H4.452C3.48012 20.4743 2.16505 20.3598 0.792969 20.3598V20.3028C2.19374 20.3028 3.48012 20.1598 4.452 19.9311H4.48051C5.08092 19.7881 5.53815 19.3022 5.68113 18.702C5.93836 17.7301 6.05281 16.4151 6.05281 15.043H6.10984C6.10984 16.4437 6.25281 17.7301 6.48152 18.702V18.7305C6.6245 19.3309 7.11042 19.7881 7.68214 19.9311H7.71066C8.68254 20.1886 9.96886 20.3313 11.3697 20.3313L11.3697 20.3313Z" fill="#05A1DC"/>
<path d="M6.10889 31.7374C5.42277 31.7659 4.76534 31.8231 4.27937 31.9376C3.99343 32.0233 3.76492 32.252 3.67896 32.538C3.5647 33.0239 3.47876 33.6813 3.47876 34.3675C3.47876 33.6814 3.42153 33.0239 3.27856 32.538C3.19282 32.252 2.9641 32.0235 2.67815 31.9376C2.19221 31.8233 1.5348 31.7374 0.848633 31.7374C1.53475 31.7374 2.19218 31.6801 2.67815 31.5372C2.96409 31.4514 3.1926 31.2227 3.27856 30.9368C3.39282 30.4508 3.47876 29.7934 3.47876 29.1072C3.47876 29.7934 3.53599 30.4508 3.67896 30.9368C3.7647 31.2227 3.99342 31.4512 4.27937 31.5372C4.76531 31.6516 5.42272 31.7089 6.10889 31.7374V31.7374Z" fill="#05A1DC"/>
<path d="M36.8785 58.2729L34.6191 58.5554L35.7575 67.662C35.8286 68.2317 36.3129 68.6591 36.8871 68.6591H52.8236V66.3824H37.8928L36.8785 58.2729Z" fill="#05A1DC"/>
<path d="M68.2524 8.20802L72.3376 10.2504L73.2468 13.8869L71.173 18.0341L68.9115 21.9919L70.8883 23.1215L72.7019 19.9475L77.8681 21.6707V23.1266H80.1447V20.9897L81.2185 16.694L81.7674 15.5958L85.1152 17.471C85.8201 17.8653 86.6819 17.8572 87.3786 17.4486C88.0758 17.0401 88.5042 16.2925 88.5042 15.4845V14.8762C88.5093 13.2317 88.0194 11.6238 87.0976 10.2619C86.1758 8.89993 84.8652 7.84747 83.3361 7.24123L79.5334 5.71979L79.5289 5.71775L74.9202 3.87406L70.409 1.61876C70.1 1.46427 69.7377 1.45817 69.4242 1.60249C69.1106 1.74682 68.8794 2.02581 68.7956 2.36069L67.6572 6.91398C67.5277 7.43131 67.7751 7.96947 68.2523 8.2078L68.2524 8.20802ZM73.7814 17.9081L75.0026 15.4658L78.7992 16.9843L78.2001 19.3809L73.7814 17.9081ZM86.2278 14.8762V15.4845L84.4105 14.4667C84.6005 14.1262 84.6996 13.7425 84.6986 13.3527C84.6996 12.3232 84.5086 11.3022 84.1345 10.3433C85.467 11.4714 86.2328 13.1301 86.2278 14.8763L86.2278 14.8762ZM78.6834 7.8314L78.692 7.83496C79.7958 8.27453 80.7415 9.03528 81.4067 10.0196C82.0719 11.0035 82.4256 12.1651 82.422 13.3528L81.8396 13.0265V13.027C81.5678 12.8746 81.2461 12.8405 80.9488 12.932C80.651 13.0235 80.404 13.2328 80.2653 13.5108L79.5955 14.8509L75.4168 13.1795L74.4883 9.46671L75.2415 6.45477L78.6834 7.8314ZM70.6602 4.28934L73.1274 5.5232L72.5547 7.81402L70.0875 6.58016L70.6602 4.28934Z" fill="#05A1DC"/>
<path d="M54.4623 23.1618L56.7379 23.0902V23.0907C56.6983 21.8116 56.4346 20.5493 55.9589 19.3612C55.7622 18.8708 55.714 18.3336 55.8202 17.8158C55.9264 17.2984 56.1825 16.8238 56.5565 16.4503L58.9872 14.0196H62.5973L65.028 16.4503C65.402 16.8238 65.6581 17.2985 65.7643 17.8158C65.8705 18.3336 65.8223 18.8708 65.6256 19.3612C65.4325 19.8455 65.2739 20.343 65.152 20.8496H60.1271V23.1262H65.8187V23.1211L67.1223 23.1623V23.1618C67.1533 22.1485 67.3626 21.1479 67.7397 20.2067C68.102 19.3026 68.1904 18.3123 67.9948 17.3583C67.7991 16.4039 67.327 15.5284 66.6379 14.8403L64.2072 12.4097V8.32796C64.2072 7.69934 63.6975 7.18964 63.0689 7.18964H58.5156C57.887 7.18964 57.3773 7.69934 57.3773 8.32796V12.4097L54.9466 14.8403C54.2575 15.5284 53.7854 16.4041 53.5898 17.3583C53.3941 18.3121 53.4825 19.3025 53.8449 20.2067C54.2219 21.1478 54.4313 22.1485 54.4623 23.1618L54.4623 23.1618ZM61.9305 9.46686V11.7435H59.6539V9.46686H61.9305Z" fill="#05A1DC"/>
<path d="M36.888 15.1585H43.718C44.0198 15.1585 44.3095 15.0385 44.5229 14.8251L48.6885 10.6595L49.9981 17.6449L52.2355 17.2251L50.5281 8.11854L50.525 8.11905H50.5255C50.4315 7.57783 49.9589 7.18451 49.4096 7.1901H49.2358L48.256 1.31142C48.1645 0.762579 47.6894 0.360107 47.1329 0.360107H40.303C39.7466 0.360107 39.2714 0.762592 39.1799 1.31142L38.0772 7.92786L34.7734 13.434C34.6677 13.6113 34.6118 13.8136 34.6123 14.0199H34.6113V17.4348H36.888L36.888 15.1585ZM41.2675 2.63692H46.1689L47.0283 7.79345C46.0256 8.38649 44.8828 8.69953 43.718 8.69953C42.5533 8.69953 41.4104 8.38649 40.4078 7.79345L41.2675 2.63692ZM39.5397 9.91606C40.8229 10.6107 42.259 10.9746 43.718 10.9736C44.248 10.9731 44.7775 10.9248 45.2989 10.8293L43.2464 12.8817H37.7601L39.5397 9.91606Z" fill="#05A1DC"/>
<path d="M44.2691 52.5604C44.6446 52.7855 45.1162 52.7754 45.4816 52.5345C45.8475 52.2936 46.0426 51.8642 45.9837 51.4307L43.4905 33.1551L43.4911 33.1546C43.303 31.7745 43.7207 30.3805 44.6365 29.331C45.5527 28.2817 46.8776 27.6795 48.2705 27.6795H84.6968C85.3254 27.6795 85.8351 28.1892 85.8351 28.8178C85.8351 29.4464 85.3254 29.9561 84.6968 29.9561H45.9939V32.2328H82.2693L79.7258 52.5808L81.9851 52.8633L84.5641 32.2317H84.6973C85.9174 32.2317 87.0445 31.5808 87.6548 30.5242C88.2646 29.4677 88.2646 28.1658 87.6548 27.1093C87.0445 26.0528 85.9174 25.4018 84.6973 25.4018H48.271C46.221 25.4023 44.2706 26.2886 42.9224 27.8334C41.5743 29.3777 40.9593 31.4298 41.2363 33.461L43.4433 49.6408C40.6509 48.5929 37.5718 48.6066 34.7891 49.6794L36.2065 34.059V34.0585C36.3899 32.0207 37.1212 30.0709 38.3235 28.4157C39.5258 26.76 41.1541 25.4611 43.0348 24.6562L43.1273 24.6166V24.6161C43.6624 24.3849 44.2392 24.2649 44.8221 24.2634H44.8561V21.9868H44.8221C43.9307 21.9873 43.049 22.1702 42.2308 22.5244L42.1384 22.563C39.8801 23.5296 37.925 25.0892 36.4813 27.0767C35.0377 29.0641 34.1589 31.4058 33.9384 33.8522L32.3386 51.4799C32.3356 51.514 32.3346 51.548 32.3346 51.5826V54.033L32.0698 54.0772V54.0767C29.2317 54.5575 26.3492 53.5121 24.4786 51.3234L28.857 35.2685C30.2931 29.985 33.2594 25.2436 37.3827 21.6412C39.043 20.1894 41.2393 19.5064 43.4295 19.7615C45.6203 20.0166 47.6011 21.1859 48.8827 22.9803L49.459 23.7857L51.3118 22.4624L50.7355 21.6569C49.0798 19.3392 46.5222 17.8293 43.6932 17.5001C40.8642 17.1708 38.028 18.053 35.8845 19.9281C31.4238 23.8248 28.2141 28.9539 26.6601 34.6691L22.1292 51.2833C22.0372 51.6223 22.1063 51.9841 22.3172 52.2652C23.4698 53.8065 25.0244 55.0001 26.8111 55.7156C28.5973 56.4311 30.5462 56.641 32.4443 56.3219L33.6608 56.1196C34.2092 56.0282 34.6111 55.553 34.6111 54.9971V52.2509C37.6654 50.6685 41.3222 50.7848 44.2696 52.5584L44.2691 52.5604Z" fill="#05A1DC"/>
<path d="M89.2507 54.9997H56.2394C55.6108 54.9997 55.1011 55.5094 55.1011 56.138V67.5212C55.1011 68.1498 55.6108 68.6595 56.2394 68.6595H89.2507C89.8793 68.6595 90.389 68.1498 90.389 67.5212V56.138C90.389 55.5094 89.8793 54.9997 89.2507 54.9997ZM75.5909 66.3829H57.3777V57.2763H75.5909V66.3829ZM88.1124 66.3829H77.8675V57.2763H88.1124V66.3829Z" fill="#05A1DC"/>
<path d="M61.9309 60.6913C61.9309 61.3199 61.4212 61.8296 60.7926 61.8296C60.164 61.8296 59.6543 61.3199 59.6543 60.6913C59.6543 60.0627 60.164 59.553 60.7926 59.553C61.4212 59.553 61.9309 60.0627 61.9309 60.6913Z" fill="#05A1DC"/>
<path d="M66.4842 62.9679C66.4842 63.5965 65.9745 64.1062 65.3458 64.1062C64.7172 64.1062 64.2075 63.5965 64.2075 62.9679C64.2075 62.3393 64.7172 61.8296 65.3458 61.8296C65.9745 61.8296 66.4842 62.3393 66.4842 62.9679Z" fill="#05A1DC"/>
<path d="M73.3142 62.9679C73.3142 63.5965 72.8045 64.1062 72.1759 64.1062C71.5473 64.1062 71.0376 63.5965 71.0376 62.9679C71.0376 62.3393 71.5473 61.8296 72.1759 61.8296C72.8045 61.8296 73.3142 62.3393 73.3142 62.9679Z" fill="#05A1DC"/>
<path d="M85.8357 60.6913C85.8357 61.3199 85.326 61.8296 84.6974 61.8296C84.0688 61.8296 83.5591 61.3199 83.5591 60.6913C83.5591 60.0627 84.0688 59.553 84.6974 59.553C85.326 59.553 85.8357 60.0627 85.8357 60.6913Z" fill="#05A1DC"/>
<path d="M82.4207 62.9679C82.4207 63.5965 81.911 64.1062 81.2824 64.1062C80.6538 64.1062 80.144 63.5965 80.144 62.9679C80.144 62.3393 80.6538 61.8296 81.2824 61.8296C81.911 61.8296 82.4207 62.3393 82.4207 62.9679Z" fill="#05A1DC"/>
<path d="M69.8992 60.6913C69.8992 61.3199 69.3895 61.8296 68.7609 61.8296C68.1323 61.8296 67.6226 61.3199 67.6226 60.6913C67.6226 60.0627 68.1323 59.553 68.7609 59.553C69.3895 59.553 69.8992 60.0627 69.8992 60.6913Z" fill="#05A1DC"/>
<path d="M64.2077 52.7231H72.176V51.5848C72.176 51.3602 72.1094 51.1401 71.9849 50.9536C71.4335 50.1299 71.1393 49.1608 71.1393 48.1699C71.1393 47.1789 71.4335 46.2099 71.9849 45.3861C72.2115 45.0466 72.2385 44.6111 72.0555 44.2458L69.7789 39.6925C69.5863 39.3068 69.192 39.0634 68.761 39.0634V35.6484C68.761 35.0198 68.2513 34.5101 67.6227 34.5101H63.0694C62.4408 34.5101 61.9311 35.0198 61.9311 35.6484V39.0634C61.5002 39.0634 61.1058 39.3068 60.9132 39.6925L58.6366 44.2458C58.4536 44.6111 58.4806 45.0466 58.7072 45.3861C59.2586 46.2099 59.5528 47.1789 59.5528 48.1699C59.5528 49.1608 59.2586 50.1299 58.7072 50.9536C58.5827 51.1401 58.5161 51.3602 58.5161 51.5848V52.7231H60.7928V51.9141C62.1176 49.7086 62.178 46.967 60.9518 44.705L62.6345 41.3399H68.0573L69.1956 43.6166H64.2078V45.8932H69.2306C68.7428 47.372 68.7428 48.9682 69.2311 50.4465H64.2078L64.2077 52.7231ZM64.2077 36.7866H66.4844V39.0632H64.2077V36.7866Z" fill="#05A1DC"/>
</svg>
