<?xml version="1.0" encoding="utf-8"?>
<!-- Generator: Adobe Illustrator 24.3.0, SVG Export Plug-In . SVG Version: 6.00 Build 0)  -->
<svg version="1.1" id="Слой_1" xmlns="http://www.w3.org/2000/svg" xmlns:xlink="http://www.w3.org/1999/xlink" x="0px" y="0px"
	 viewBox="0 0 999 443" style="enable-background:new 0 0 999 443;" xml:space="preserve">
<style type="text/css">
	.st0{fill-rule:evenodd;clip-rule:evenodd;fill:#05A1DC;}
	.st1{fill:#FFFFFF;}
	.st2{fill:#FFFDFD;}
	.st3{font-family:'MyriadPro-Regular';}
	.st4{font-size:36px;}
	.st5{font-family:'MyriadPro-Bold';}
	.st6{font-size:229.4015px;}
</style>
<path class="st0" d="M627.6,441.8c27.1,2.3,48.4-1.1,62.3-4.4c17.4-4.2,30.7-10,42.6-15.2c9-3.9,23.5-10.4,40.6-21.3
	c17.5-11.2,29.6-19,41.6-33.5c8.4-10.2,24.5-29.7,25.3-56c0.6-19.5-7.1-42.1-9.3-48c-0.3-0.9-0.7-1.9-1-2.8c-13-35-22-76.1-2.5-108
	c14.2-23.3,40.6-36,66.3-45c5-1.7,10-3.4,15-5c21-6.9,42.2-13.9,59.8-26.9c20.3-15,34.8-40.4,29.4-66c-1.2-5.5-6.5-9.1-12.2-9.1
	h-885c-55.2,0-100,44.8-100,100v241.3c0,55.2,44.8,100,100,100H627.6z"/>
<path class="st1" d="M100.2,351v0.2c-5.8,0-11.1,0.5-15.1,1.6H85c-2.5,0.6-4.3,2.6-5,5v0.1c-1.1,4.1-1.6,9.4-1.6,15.1h-0.2
	c0-5.8-0.5-11.1-1.6-15.1v-0.1c-0.6-2.5-2.6-4.3-5-5h-0.1c-4-1.1-9.3-1.6-15-1.6V351c5.8,0,11.1-0.5,15.1-1.6h0.1
	c2.5-0.6,4.3-2.6,5-5v-0.1c1.1-4.1,1.6-9.4,1.6-15.1h0.2c0,5.8,0.5,11.1,1.6,15.1v0.1c0.6,2.5,2.6,4.3,5,5H85
	C89.1,350.4,94.4,351,100.2,351L100.2,351z"/>
<path class="st1" d="M67.6,324L67.6,324c-4.3,0.1-8.3,0.5-11.3,1.2c-1.9,0.4-3.3,1.9-3.8,3.7v0.1c-0.8,3-1.2,7.1-1.2,11.3h-0.2
	c0-4.3-0.4-8.3-1.2-11.3V329c-0.4-1.9-1.9-3.3-3.7-3.7h-0.1c-3-0.8-7.1-1.2-11.3-1.2v-0.2c4.3,0,8.3-0.4,11.3-1.2h0.1
	c1.9-0.4,3.3-1.9,3.7-3.8c0.8-3,1.2-7.1,1.2-11.3h0.2c0,4.3,0.4,8.3,1.2,11.3v0.1c0.4,1.9,1.9,3.3,3.7,3.7h0.1
	C59.3,323.6,63.2,324,67.6,324L67.6,324z"/>
<path class="st1" d="M51.2,359.2c-2.1,0.1-4.2,0.3-5.7,0.6c-0.9,0.3-1.6,1-1.9,1.9c-0.4,1.5-0.6,3.5-0.6,5.7c0-2.1-0.2-4.2-0.6-5.7
	c-0.3-0.9-1-1.6-1.9-1.9c-1.5-0.4-3.5-0.6-5.7-0.6c2.1,0,4.2-0.2,5.7-0.6c0.9-0.3,1.6-1,1.9-1.9c0.4-1.5,0.6-3.5,0.6-5.7
	c0,2.1,0.2,4.2,0.6,5.7c0.3,0.9,1,1.6,1.9,1.9C47,358.9,49.1,359.1,51.2,359.2z"/>
<path class="st1" d="M752.1,72.9v0.2c-5.8,0-11.1,0.5-15.1,1.6h-0.1c-2.5,0.6-4.3,2.6-5,5v0.1c-1.1,4.1-1.6,9.4-1.6,15.1H730
	c0-5.8-0.5-11.1-1.6-15.1v-0.1c-0.6-2.5-2.6-4.3-5-5h-0.1c-4-1.1-9.3-1.6-15-1.6v-0.2c5.8,0,11.1-0.5,15.1-1.6h0.1
	c2.5-0.6,4.3-2.6,5-5v-0.1c1.1-4.1,1.6-9.4,1.6-15.1h0.2c0,5.8,0.5,11.1,1.6,15.1v0.1c0.6,2.5,2.6,4.3,5,5h0.1
	C740.9,72.3,746.2,72.8,752.1,72.9L752.1,72.9z"/>
<path class="st1" d="M718.9,51L718.9,51c-4.3,0.1-8.3,0.5-11.3,1.2c-1.9,0.4-3.3,1.9-3.8,3.7V56c-0.8,3-1.2,7.1-1.2,11.3h-0.2
	c0-4.3-0.4-8.3-1.2-11.3v-0.1c-0.4-1.9-1.9-3.3-3.7-3.7h-0.1c-3-0.8-7.1-1.2-11.3-1.2v-0.2c4.3,0,8.3-0.4,11.3-1.2h0.1
	c1.9-0.4,3.3-1.9,3.7-3.8c0.8-3,1.2-7.1,1.2-11.3h0.2c0,4.3,0.4,8.3,1.2,11.3V46c0.4,1.9,1.9,3.3,3.7,3.7h0.1
	C710.6,50.5,714.5,51,718.9,51L718.9,51z"/>
<path class="st1" d="M702.6,86.3c-2.1,0.1-4.2,0.3-5.7,0.6c-0.9,0.3-1.6,1-1.9,1.9c-0.4,1.5-0.6,3.5-0.6,5.7c0-2.1-0.2-4.2-0.6-5.7
	c-0.3-0.9-1-1.6-1.9-1.9c-1.5-0.4-3.5-0.6-5.7-0.6c2.1,0,4.2-0.2,5.7-0.6c0.9-0.3,1.6-1,1.9-1.9c0.4-1.5,0.6-3.5,0.6-5.7
	c0,2.1,0.2,4.2,0.6,5.7c0.3,0.9,1,1.6,1.9,1.9C698.4,86,700.5,86.2,702.6,86.3z"/>
<path class="st0" d="M879,404.4"/>
<text transform="matrix(1 0 0 1 320.0119 142.9509)"><tspan x="0" y="0" class="st2 st3 st4">СКИДКА НА</tspan><tspan x="0" y="43.2" class="st2 st5 st4">ГЕНЕРАЛЬНУЮ УБОРКУ</tspan></text>
<text transform="matrix(0.6223 0 0 1 24.8101 266.6762)" class="st2 st5 st6">10%</text>
</svg>
