<svg width="1366" height="605" viewBox="0 0 1366 605" fill="none" xmlns="http://www.w3.org/2000/svg">
<path d="M-2198.2 152.006C-2072.43 215.167 -2051.12 292.78 -1936.36 343.01C-1754.98 422.433 -1529.91 423.128 -1349.05 343.427C-1188.46 272.623 -1165.37 158.169 -1011.7 79.7656C-924.561 35.2814 -811.854 2.84497 -692.221 0.435425C-555.484 -2.29846 -422.938 34.818 -328.36 88.4308C-233.782 142.044 -173.324 210.762 -129.712 281.057C-103.288 323.687 -82.0809 367.801 -40.4358 406.678C1.20935 445.556 67.9956 479.475 150.003 486.426C223.63 492.635 296.573 476.648 366.524 462.608C515.488 432.72 495.065 550.021 630.689 594.876C729.714 627.683 903.091 606.048 1154.02 633.127C1404.95 660.206 1085.01 731.923 1154.02 782.523C1217.98 829.464 1325.9 862.919 1435.27 850.408C1473.84 845.96 1659.83 810.975 1659.83 784.562C1660.52 792.811 1661.2 801.059 1661.88 809.307V1627.12L-2613.8 1627.12V1098.92C-2613.8 1098.87 -2613.8 1098.87 -2613.8 1098.87L-3895.98 1006.21C-3891.02 1029.75 -3884.18 1053.24 -3875.03 1076.73C-3807.98 1248.92 -2883.49 -192.131 -2198.2 152.006Z" fill="#fff"/>
</svg>
